<mxfile host="Electron" agent="Mozilla/5.0 (Windows NT 10.0; Win64; x64) AppleWebKit/537.36 (KHTML, like Gecko) draw.io/26.0.4 Chrome/128.0.6613.186 Electron/32.2.5 Safari/537.36" version="26.0.4">
  <diagram name="Seite-1" id="RImakalW-ploLCMvIEYe">
    <mxGraphModel dx="3341" dy="984" grid="1" gridSize="10" guides="1" tooltips="1" connect="1" arrows="1" fold="1" page="1" pageScale="1" pageWidth="827" pageHeight="1169" background="none" math="0" shadow="0">
      <root>
        <mxCell id="0" />
        <mxCell id="1" parent="0" />
        <mxCell id="l7o0WR-2r7jYEDledR1q-21" value="" style="group" vertex="1" connectable="0" parent="1">
          <mxGeometry x="-1640" y="9" width="800" height="1151" as="geometry" />
        </mxCell>
        <mxCell id="l7o0WR-2r7jYEDledR1q-3" value="" style="rounded=1;whiteSpace=wrap;html=1;fillColor=none;strokeWidth=10;sketch=1;curveFitting=1;jiggle=2;strokeColor=#6c8ebf;" vertex="1" parent="l7o0WR-2r7jYEDledR1q-21">
          <mxGeometry width="794.4952826842589" height="1151" as="geometry" />
        </mxCell>
        <mxCell id="l7o0WR-2r7jYEDledR1q-1" value="" style="shape=image;verticalLabelPosition=bottom;labelBackgroundColor=default;verticalAlign=top;aspect=fixed;imageAspect=0;image=data:image/jpeg,/9j/4AAQSkZJRgABAQEAYABgAAD/2wBDAAMCAgMCAgMDAwMEAwMEBQgFBQQEBQoHBwYIDAoMDAsKCwsNDhIQDQ4RDgsLEBYQERMUFRUVDA8XGBYUGBIUFRT/2wBDAQMEBAUEBQkFBQkUDQsNFBQUFBQUFBQUFBQUFBQUFBQUFBQUFBQUFBQUFBQUFBQUFBQUFBQUFBQUFBQUFBQUFBT/wAARCAMqBDADASIAAhEBAxEB/8QAHwAAAQUBAQEBAQEAAAAAAAAAAAECAwQFBgcICQoL/8QAtRAAAgEDAwIEAwUFBAQAAAF9AQIDAAQRBRIhMUEGE1FhByJxFDKBkaEII0KxwRVS0fAkM2JyggkKFhcYGRolJicoKSo0NTY3ODk6Q0RFRkdISUpTVFVWV1hZWmNkZWZnaGlqc3R1dnd4eXqDhIWGh4iJipKTlJWWl5iZmqKjpKWmp6ipqrKztLW2t7i5usLDxMXGx8jJytLT1NXW19jZ2uHi4+Tl5ufo6erx8vP09fb3+Pn6/8QAHwEAAwEBAQEBAQEBAQAAAAAAAAECAwQFBgcICQoL/8QAtREAAgECBAQDBAcFBAQAAQJ3AAECAxEEBSExBhJBUQdhcRMiMoEIFEKRobHBCSMzUvAVYnLRChYkNOEl8RcYGRomJygpKjU2Nzg5OkNERUZHSElKU1RVVldYWVpjZGVmZ2hpanN0dXZ3eHl6goOEhYaHiImKkpOUlZaXmJmaoqOkpaanqKmqsrO0tba3uLm6wsPExcbHyMnK0tPU1dbX2Nna4uPk5ebn6Onq8vP09fb3+Pn6/9oADAMBAAIRAxEAPwD9UKKKKsgKKQmvkrXv2hvGtkNX8fW2qWx8C6Z4mXQjoZsU8+WERKzzecTkNuYAL04PI7opK59bUVz/AIw8caX4D0xb/Vzeras4jDWWn3F42T0ysCOwHuRiuJ039qD4e6xYw3tjfa1eWkw3RzweGdTdHHTIIt8GgLM9WorzL/ho7wR/z01//wAJbVP/AJGo/wCGjvBH/PTX/wDwltV/+RqLhZnptFeZf8NHeCP+emv/APhLar/8jUf8NHeCP+emv/8AhLar/wDI1Fwsz02ivMv+GjvBH/PTX/8AwltV/wDkaj/ho7wR/wA9Nf8A/CW1X/5GouFmem0V5l/w0d4I/wCemv8A/hLar/8AI1H/AA0d4I/56a//AOEtqv8A8jUXCzPTaK8y/wCGjvBH/PTX/wDwltV/+RqP+GjvBH/PTX//AAltV/8Akai4WZ6bRXmX/DR3gj/npr//AIS2q/8AyNR/w0d4I/56a/8A+Etqv/yNRcLM9NorzL/ho7wR/wA9Nf8A/CW1X/5Go/4aO8Ef89Nf/wDCW1X/AORqLhZnptFeZf8ADR3gj/npr/8A4S2q/wDyNR/w0d4I/wCemv8A/hLar/8AI1Fwsz02ivMv+GjvBH/PTX//AAltV/8Akaj/AIaO8Ef89Nf/APCW1X/5GouFmem0V5l/w0d4I/56a/8A+Etqv/yNR/w0d4I/56a//wCEtqv/AMjUXCzPTaK8y/4aO8Ef89Nf/wDCW1X/AORqP+GjvBH/AD01/wD8JbVf/kai4WZ6bRXmX/DR3gj/AJ6a/wD+Etqv/wAjUf8ADR3gj/npr/8A4S2q/wDyNRcLM9NorzL/AIaO8Ef89Nf/APCW1X/5Go/4aO8Ef89Nf/8ACW1X/wCRqLhZnptFeZf8NHeCP+emv/8AhLar/wDI1H/DR3gj/npr/wD4S2q//I1Fwsz02ivMv+GjvBH/AD01/wD8JbVf/kaj/ho7wR/z01//AMJbVf8A5GouFmem0V5l/wANHeCP+emv/wDhLar/API1H/DR3gj/AJ6a/wD+Etqv/wAjUXCzPTaK8y/4aO8Ef89Nf/8ACW1X/wCRqP8Aho7wR/z01/8A8JbVf/kai4WZ6bRXmX/DR3gj/npr/wD4S2q//I1H/DR3gj/npr//AIS2q/8AyNRcLM9NorzL/ho7wR/z01//AMJbVf8A5Go/4aO8Ef8APTX/APwltV/+RqLhZnptFeZf8NHeCP8Anpr/AP4S2q//ACNR/wANHeCP+emv/wDhLar/API1Fwsz02ivMv8Aho7wR/z01/8A8JbVf/kaj/ho7wR/z01//wAJbVf/AJGouFmem0V5l/w0d4I/56a//wCEtqv/AMjUf8NHeCP+emv/APhLar/8jUXCzPTaK8y/4aO8Ef8APTX/APwltV/+RqP+GjvBH/PTX/8AwltV/wDkai4WZ6bRXmX/AA0d4I/56a//AOEtqv8A8jUf8NHeCP8Anpr/AP4S2q//ACNRcLM9NorzL/ho7wR/z01//wAJbVf/AJGo/wCGjvBH/PTX/wDwltV/+RqLhZnptFeZf8NHeCP+emv/APhLar/8jUf8NHeCP+emv/8AhLar/wDI1Fwsz02ivMv+GjvBH/PTX/8AwltV/wDkaj/ho7wR/wA9Nf8A/CW1X/5GouFmem0V5l/w0d4I/wCemv8A/hLar/8AI1H/AA0d4I/56a//AOEtqv8A8jUXCzPTaK8y/wCGjvBH/PTX/wDwltV/+RqP+GjvBH/PTX//AAltV/8Akai4WZ6bRXmX/DR3gj/npr//AIS2q/8AyNR/w0d4I/56a/8A+Etqv/yNRcLM9NorzL/ho7wR/wA9Nf8A/CW1X/5Go/4aO8Ef89Nf/wDCW1X/AORqLhZnptFeZf8ADR3gj/npr/8A4S2q/wDyNR/w0d4I/wCemv8A/hLar/8AI1Fwsz02ivMv+GjvBH/PTX//AAltV/8Akaj/AIaO8Ef89Nf/APCW1X/5GouFmem0V5l/w0d4I/56a/8A+Etqv/yNR/w0d4I/56a//wCEtqv/AMjUXCzPTaK8y/4aO8Ef89Nf/wDCW1X/AORqP+GjvBH/AD01/wD8JbVf/kai4WZ6bRXmX/DR3gj/AJ6a/wD+Etqv/wAjUf8ADR3gj/npr/8A4S2q/wDyNRcLM9NorzL/AIaO8Ef89Nf/APCW1X/5Go/4aO8Ef89Nf/8ACW1X/wCRqLhZnptFeZf8NHeCP+emv/8AhLar/wDI1H/DR3gj/npr/wD4S2q//I1Fwsz02ivMv+GjvBH/AD01/wD8JbVf/kaj/ho7wR/z01//AMJbVf8A5GouFmem0V5l/wANHeCP+emv/wDhLar/API1H/DR3gj/AJ6a/wD+Etqv/wAjUXCzPTaK8y/4aO8Ef89Nf/8ACW1X/wCRqP8Aho7wR/z01/8A8JbVf/kai4WZ6bRXmX/DR3gj/npr/wD4S2q//I1H/DR3gj/npr//AIS2q/8AyNRcLM9NorzL/ho7wR/z01//AMJbVf8A5Go/4aO8Ef8APTX/APwltV/+RqLhZnptFeZf8NHeCP8Anpr/AP4S2q//ACNR/wANHeCP+emv/wDhLar/API1Fwsz02ivMv8Aho7wR/z01/8A8JbVf/kaj/ho7wR/z01//wAJbVf/AJGouFmem0V5l/w0d4I/56a//wCEtqv/AMjUf8NHeCP+emv/APhLar/8jUXCzPTaK8y/4aO8Ef8APTX/APwltV/+RqP+GjvBH/PTX/8AwltV/wDkai4WZ6bRXmX/AA0d4I/56a//AOEtqv8A8jUf8NHeCP8Anpr/AP4S2q//ACNRcLM9NorzL/ho7wR/z01//wAJbVf/AJGo/wCGjvBH/PTX/wDwltV/+RqLhZnptFeZf8NHeCP+emv/APhLar/8jUf8NHeCP+emv/8AhLar/wDI1Fwsz02ivMv+GjvBH/PTX/8AwltV/wDkaj/ho7wR/wA9Nf8A/CW1X/5GouFmem0V5l/w0d4I/wCemv8A/hLar/8AI1H/AA0d4I/56a//AOEtqv8A8jUXCzPTaK8y/wCGjvBH/PTX/wDwltV/+RqP+GjvBH/PTX//AAltV/8Akai4WZ6bRXmX/DR3gj/npr//AIS2q/8AyNR/w0d4I/56a/8A+Etqv/yNRcLM9NorzL/ho7wR/wA9Nf8A/CW1X/5Go/4aO8Ef89Nf/wDCW1X/AORqLhZnptFeZf8ADR3gj/npr/8A4S2q/wDyNR/w0d4I/wCemv8A/hLar/8AI1Fwsz02ivMv+GjvBH/PTX//AAltV/8Akaj/AIaO8Ef89Nf/APCW1X/5GouFmem0V5l/w0d4I/56a/8A+Etqv/yNR/w0d4I/56a//wCEtqv/AMjUXCzPTaK8y/4aO8Ef89Nf/wDCW1X/AORqP+GjvBH/AD01/wD8JbVf/kai4WZ6bRXmX/DR3gj/AJ6a/wD+Etqv/wAjUf8ADR3gj/npr/8A4S2q/wDyNRcLM9NorzL/AIaO8Ef89Nf/APCW1X/5Go/4aO8Ef89Nf/8ACW1X/wCRqLhZnptFeZf8NHeCP+emv/8AhLar/wDI1H/DR3gj/npr/wD4S2q//I1Fwsz02ivMv+GjvBH/AD01/wD8JbVf/kaj/ho7wR/z01//AMJbVf8A5GouFmem0V5nD+0Z4Fnv7CzN5q1tNfXcNjbtd+HtRgjeaVxHGheS3VV3MyjJIHPNemUCsFFFFMQlfPmrfspPq2pXlgPFaReBL7W11248PrpmZmmCBGRbnzuEIVTjyycjrzX0JR9aRV7CcEZ4/DmvKv2Vf+TePAn/AGDl/wDQmr1WvKv2Vv8Ak3jwJ/2Dl/8AQmpD6Hq1FFFUSFFFFABRRRQAUUUUAFFFFABRRRQAUUUUB8wooooD5hRRRSDUKKKKYBRRRQAUUUUAFFFFABRRRQAUUUUAFFFFABRRRQAUUUUAFFFFABRRRQAUUUUAFFFFABRRRQAUUUUAFFFFABRRRQAUUUUAFFFFABRRRQAUUUUAFFFFABRRRQAUUUUAFFFFABRRRQAUUUUAFFFFABRRRQAUUUUAFFFFABRRRQAUUUUAFFFFABRRRQAUUUUAFFFFABRRRQAUUUUAFFFFABRRRQAUUUUAFFFFABRRRQAUUUUAFFFFABRRRQAUUUUAFFFFABRRRQAUUUUAFFFFABRRRQAUUUUAeYftBf8AIr+Gf+xv0D/0529en15h+0F/yLHhj/sb9A/9OdvXp9IYUUUUyQooooAQ15V+yt/ybx4E/wCwcv8A6E1eqmvKv2Vv+TePAn/YOX/0JqRXQ9WooopiCiiigQUUUUAFFFFABRRRQAUUUUAFIxx9aWvG/wBqT4g6p4E+H1smhXRtNb1W+is7aSMjzFHLMVB/3QvtvHtV04OpJRXU1pU3VmoLqeyCivCP2afHWv6pqvjXwp4q1R9V1jQ9Q2pcSgKzxElOAAPlym7/AIHXs+ra9p2gxxSalqFrp8cjeWjXUyxh264GSMnANOpTdOXIyq1F0p+z3NCkZsVz+pfEDw1pOrR6XfeINLstTkKhbO4vI0mO77uEJzz245rYvGzZzEf3CR+VRyvS+lyOR3SelydGDDrn6U6vnD9hy8nvPhzrr3E8k7jV2AaRix/1MXrXvtx4i0yz1SHTZ9StIdQnXfFaSToJZFOeVQnJHB7djV1KbpzcOxdWi6U3T3saVFQ3FzHawyTTSLFAil3kdgqqoGSST2rF0Hx94a8U3Utto3iHS9VuIl3PFZ3cczKvqQpJA96hJvVGajJq9joKKo6nrNjoto11qN5BYWyEBprmVY0BJwMsTiqln4y0LULG6vLXW9PubO1XdcXEN1GyQjBOXYHCjgnn0NJXeqBRbV0bNFY/h/xfoniyOWTRdYsdWjifZI1jcJMEPXDbScH2rXWh3WjE4uOklYWiimSSBI2ZjgAc0vQQ7PrS5zXxNpfx28cS+MrHxnLq1yfh9eeJH00WsgULHEdrKDxniNs9esbV9sLyuc5roq0ZUbc3U66+Hlh7c3UWiiiuc4wooopgFFFFABRRRQAUUUUAFFFFABRSE/nScqKVwHUUzcT3pc56EUXAdRSKc+9LTGFFMdtpHOKPMHXPGaQD6KZux1+lG6gB9FN3dTSrk0ALRRRTEFFFFABRRRQAUUUUAFFFFABRRRQAUUUUAFFFFABRRRQAUUUUAFFFFABRRRQAUUUUAFFFFABRRRQAUUUUAFFFFABRRRQAUUUUAFFFFABRRRQAUUUUAFFFFABRRRQAUUUUAFFFFABRRRQAUUUUAFFFFABRRRQAUUUUAFFFFABRRRQAUUUUAFFFFABRRRQB5h+0F/yLHhj/ALG/QP8A0529en15h+0F/wAix4Y/7G/QP/Tnb16fSK6BRRRTJCiiigBDXlX7K3/JvHgT/sHL/wChNXqpryr9lb/k3jwJ/wBg5f8A0JqRXQ9WooopiCiiigQUUUUAFFFFABRRRQAUUUlAAxr5n+KVxH48/ao8EeHn2NY+HYTqNyzHAWQ/vAG7YOyD/vqvpWSRUBYkAAZOfSvjP4Y/CnSP2mvGXjvxbrk2pQ2DaiEsWt5FjJXDYVtyn7qCHgetdmGUVzTlokvzPTwcYxcqk3ZJfmdxqV6vgH9sPTb6KWFtP8WWAtppAwwJANqgf7RaGIe+81H+3d/yIPhzuP7T/wDaT1xfx0/Z20r4JeGdM8YeFZtSuLzT9TgklN5KjrGuSVb5UBB8wRr/AMCro/2zNYi8Q/CPwZqtsSbe+uo7qMdyrwMw/nXVFRdSlOPp9x3Q5fa0akH5fcaHj79mDwta/CzxBr96by58VxWE+pz6m1w2ZbgRmRhsztCls8YyAeveux/ZV8QXuv8AwJsTfStPJZtNaJI5yxjQ/ID9AQv0UV2nxW/5I14uxyf7Duunf9w1ecfsd/8AJB+uP9MuevTqKy5uei3LfmRjzyqUJObvaSOC/ZD+JnhbwJ8OddTXtesdLmbU2mWGeYCRk8mMblT7xGQRwKt/Cqab45/tJah8QIYZ4PDuiReRZvIP9Y2wxqvOMZDySED7vAPWsP8AZP8Agr4N+JXgvV9R8RaR/aF9b6i0EUv2mWMogijIG1XA6sTyO9a/wU1q6/Z/+MeqfDLWpmOi6nN5umXMmAu9v9WxPGN6jYcD76gDvXRU5L1HD4v6vY6qvs+as6Xx269utiX9pTxBa+MfjR4d8B6zr40Lwnbwi81GVpAgaQh2Ckk4ztVVXPQyE4Ncr8X/AAf8JfDPhIa38O/ElraeJtLkilhjs9VMsk2HUEjcxwy53fLj7vTmuv8A2m/Bs3hf4naJ8RW8OReJvDyQi21Wyki81eNyh2UjjKsMMeAyDPUZZD8Xv2d5NPFzJ4Vs4bjHNo+ir5v0yBt/8eopyapwcE2lvb9QpPlp03TTaS1S/G57NYaTp/x2+DeiL4hjdoNUtLe6uEt3MZ8wbWOCOg3D8q+c/gn8LdP8VfEH4ieCbiKf/hEtN1fzZEjuGRpTDJPFDC5GCVIYsSCDmIetfS/jL4heGPgv4J03ULq2ktdEaSO1trewgBCbkZlAUEADCn9K+Xvgz+0H4V8B+PfiTrGprfGz8Qaj9rs/JtwzbPNnb5hu4OJV/WsaPtHTny7dPvOfD+1lTqOC06fees+F/wBnS8+G3x2sdf8ACPlaf4Oa2aK7smuXaTlGGwBgSy7xG/LdR7V9CrVexu49Rsbe6iyIpo1kTPBwQCKsV59SpKo1zbo8mrVnVac90Brzb9onxcPBnwd8SXqyeXczW5s4Cpw3mSnYCvuAS3/Aa9J5r5n/AGuLx/GHiTwF8O7acK2qX6z3QUfNGm4Ro/0w0xx/se1Xh4qVRX2NcJBTrRT2Wr+Ri618PbNf2MbK0R1fUbeGPXQNwVt7N5jgj1ETsv8AwGvfPgt4vHjn4V+G9Y81pp5rRY55GGCZk+SQ/wDfatXlf/DD3gLaf9O1zOD/AMvMX/xr6flUH7G+rT6PZ+L/AALfTK95oOpPtGf4SSj7Rn7u+Mn/AIHXZV5KlOTi72d/vO+u6dajJwd7O/3n0iKWkX+tFeYeILRRRQOwUUUUBYKKSjmgBaKSigBaKSigAOa+bv2lfiprA8aaT8O9A8RQ+Do5rJtW17xJIQp0+yD7FCEkfM7Dbxg5KAEbjX0g31xXyP8AEePwx4W/bPtdW+ICWsXh7UvD6x6fc6mmbP7Ski/K5PyjaAT83ALKeDtNejgYxlUlKSvZNpeZzV5NR0Z6B+zT4f8Ahtp8+u33gfxneeMdTuhGNTudQvzcTHBYqzKVUgElucc4xnivnaab4aa58bfiufiV4v1bQ0ttZ8nTo7a7mQMMusnyorcAhPTrXqHgm48OeJP2zBqPw2Fi2hWXh6SPXrrSUVbSeV5DsAKDa7Z8o7h1CHk7TXTeCvjp8K9Tm8b2vifSNA8Ca1b388GqafqvkiS/AHMxJRfN3ZYY+Y8dwRn00505yklJ8yXbmV36foYaSSWmj+89W+DGjeG9C+Hmm23hLVJNa0A75be9luvtLSbnJbMnfDEjHbGO1dvXzj+w7axw/DrxVc2FrNa+H73xNe3GjrMpXNpiNUKg84G0j6qa9l034meHNY8dar4Ns9QafxFpUKXF7aC3lAhRwhUmQrsJIkXgMTz04OPHxNNxrTine3X/ADOqnK8EzA+M/wAKx8VLHTrS88V6r4d0O2kaTUbXTZlhW+iK8JI/UAMAfTG7Izgr4X8K/B2n+EP2lbCx+E+r3+o+Co7CX/hJlF211YpLtYQqJD8pl37DgEsBu6DcB9EfEjxh4I0O1g0fxvqelWdnrCyRpb6w6pDcKm3eCX+XjcvX1r5w8J3Xg7Qf2qPC2m/B2+WTRdQtrp/E1no0zTacAsTeTIcEop3YGVIAJA/iIPbhZTdGcNbWfTT19exjV5VNNb3NH44fFK78V/FbU/BR8bH4ceCfDsMD65rEEvl3d1NKu9LeBhzymegz8rkhgAK6bwzouhaD+zj42T4Ma9eeIry4iubiO8W7NxdG7MKg7SAGEm1VKjAOSCOtcP4UuPBPgj9q74qr8RJdNs7i/NreaPd64ES3MZjbeUeTCBgGVAc5+VwO9aP7OaW2qfGX41658O7eyi8KzxW0GmyLC0VjLeJEc42gfIHLk7RnEgI6iumpCMaSUbpRUX5P+vUxi25a9br0OG+EPxH8J/C/x1Zaxpera9aeFv7A/wCKlXWfPZZdVLAqkaOPmuCQ3CZG3OONxH2R8P8AxZc+NfC9trF1oWoeHGuHcx2OqBVuBGGIR3UE7Sy4JU8qSRzjJ+S/ip4F1/wn4++HmoeMPGkaeJPEF3PFdeKJIENloSxxoyQWaSfu4i7HHmsN525+X5s+6/sxePNa8deEvEA1jVI/EI0jXbrSrPXo4ljXUbePbsmwvy/xEZXg46nk1ljoQq01Xhv1/q2v5+RpRbjJwZ7GKKQUV4R2i0UUUDCiiigLBRRSUALRRRQIKKKKYBRRRQAUUUUAFFFFABRRRQAUUUUAFFFFABRRRQAUUUUAFFFFABRRRQAUUUUAFFFFABRRRQAUUUUAFFFFABRRRQAUUUUAFFFFABRRRQAUUUUAFFFFABRRRQAUUUUAFFFFABRRRQAUUUUAFFFFABRRRQAUUUUAFFFFAHmH7QX/ACLHhj/sb9A/9OdvXp9eYftBf8ix4Y/7G/QP/Tnb16fSK6BRRRTJCiiigBDXlX7K3/JvHgT/ALBy/wDoTV6qa8q/ZW/5N48Cf9g5f/QmpFdD1aiiimIKKKKBBRRRQAUUUUAFFFFABSN0OOtLRQB8i/Hv4i/FPwJ8Vk1GyEkHgqxUXF5M+/7OtqpzK77VbOFz0BPTAJ4rJh/b68H6fqeqw2WveFINLEJeyKR6gjPNtHDqLPAG7IyM8AV75+1QoP7N3xM4/wCZfvP/AEU1fhnXU8QuVR5Fp+J0VZ+0SS0sfqNff8FAPD134Zs1k17wjPqUk+26t5l1EwiPJwQTZcnhe1WZP28vA91q11az614SfQ4bYGzDwagSJsLwV+xfKv3+R2xX5Yf4Yo/l6dqj2/aCOdJ9z9RLj/goNos3hmDOv+EZNTeVlnt5P7R8ryiDjn7F17Yx0rW079vjwNZ+KJbVPEXhi38M+Uxjlgh1ASl8Dqgs8dc96/KX+dH4U3XVrKCHZ9z9RLH9vzw3YeGdQ8nWvCFrq32jNvbwJqKxPHwCxIsvvde1Wpv28vBV54i0w3Wt+EptPWDNxcNFqDSRzbSSEBs+V37ec9K/LH2ope3391f18wSa1ufqWv8AwUK0RtK1Rm8ReFBfLMBZx/8AEyKPHu+YsfsXBA9M8+nWs1f2yvhh/wAJBo9wZPAggkhV9QuvsN75qTFfmCn7DyN3Gc9BX5jfzop/WO0EEVKO0mfqLN+334avtH1SO71vwfPcxzp9ghkTUGjaP5gzNmy4IG3HBzk9KW7/AG4vACr4eMGpeDWeTYdWDWl+PKORu8v/AEL5uM9cV+XNH04o+sW2gg97+Y/VIf8ABQfw4txrSp4k8Li2jiB04gall2yOH/0P5R1556Copf8AgoVoY0/RmTxJ4VN2zH+0VI1LbGN5AKH7H83y7T9Sa/LL/wDXRS9sv5ELl8z9Vj/wUI8NDVdZUeJfDBsUhJ09iNS3SS5XAcfY+Bjf69BWZdft9eG5bHR7waz4Pl1oO63bSR6j+6j3Hbsb7ETyOv1r8vKKPbrfkX9fMOV9z9X7T/goJ4NbxRqsVz4o8OroaRSGxmSPUTLI4I2B1+yYUEZzgnFc9D+314dt9Bmu4tZ8HReIXuGDBE1AK0OFIYsLLJOS2QfY5r8waP1+tHtl0gvx/wAw5fM/Z74V/tCav8bNa1J/BMvh3XNB06ALdTpcXUUkdw8TGNdsluuVLrjIzgZPXg9X/a3xg/4R24kOheG/7YFziKIalKY2ix1z5Oc5zxj/AOv8sf8ABJUf8U38R/a7ssf98TV9+7R6Ue2X8iFy+Z5wupfFD+3rFH0bw+NJNqGuZBqEnmLP5RJVR5PK+ZgZ445xWeuq/GL+wbt20Lwz/aq3KiCMalL5bQ4bcWbyeGztwOep9K9Y96Kftl/IhcvmedXmofEwal4eW20jQWs3ji/tZ3vpA8TEjzBEPK+YAZxnbnviqKap8XPsutF9D8N+emz+zwupSkSfMd28+Txxjsfwr1PA/Cil7ZfyIOXzPMF1P4sfaNADaL4cEMgX+1CupS5jPmMCIv3PzfJtPOOSRjjJSPU/i152th9E8ObETOnf8TGXMjbl4f8Ac/KNu7nnkCvT8UbR6U/bL+RBy+Z5a2qfF37PoRXQ/DZmfd/aIOoy4j/eEDZ+5+YbNp7c5HvU1tqfxVbWtYSbRfD66YiSmwkXUJS7sD+73jyflyOvNembRRij2y/kQcvmeTSat8ZP+Edt5E0HwydXM7iWI6nL5Yhwuwg+R1J35GOgHPNaM+pfFEeINRSLRvD50hbaRrSRtQl8x5gh2Kw8ngF8AnsOcHpXpOKTaPSj2y/kQ7eZ5PJqvxh/4R2CRdC8MnWDcsJYjqUvliHC7SD5Jy2d2fTA61H4i0Xxv4t1QWGt+D/CGteHVtzKF1Ccz4uBCcAI0BGPMO3d1CknB6V65ijaOOKarW1UUJxvo2eI6HpfxK8J+EDb6F4K8F6Rfte7ms7C6aCAxleXOyAAvkDt078UuveBvEfirxVotzrXw+8C6xbtFEL+8v8AE9xGf4wha3JbHbkfhXtu0elG0HrVfWHe/Kri5PM8jsbr4tWeg38UfhzwvbTwNFHp1tDqEixeUNwYHEPykAJgAdz0xz558KfA/wAXfDvxm8Y+KNT8P6LDbeIrm1F1M+pbysUSFcw7UJIwf4wh4HFfUGKTaPSqjinFSSgtfX/MTpptO+x4jrXh7x94y0nUB4m8C+CNYvLYj+zI76c3MfzEb+Xtzt4A6DnAzUvhvw7448HyaNHongjwVottcgHVhp0xgAYSNjYFgG/Ee0845JHufacClxWf1h25eVWHyLueI614Z8c+MptV/wCEl8CeCNZS2R/7KN/Kbj5t4wDvgO0FeTjuBVmxj+KPh7wnpNnovhTwjYTI8onsre9eK3iTgqUCwYySXJGB265r2TAo2im8Q3o4K3zDl1vc8l8Rab478TXWvafq3hPwnq+gLHJJp0eoXDTebKAfKMiNCQD69cZOPWq+mx/FLw/4X0ey0nwr4R0545ZEns7W9eK3hi+UoYwsGMkl8jAxx68exbR6UYFL2+luVBy63uebtqXxR/4SC/jTRvD/APZAhc20h1CUSGQRkoCvk8AvgE54GSM9KzpdW+Mv/CP2zpoPhk6sbhhNG2pS+WIcDaQfJ5Oc56Y4616ztHpRgVPtl/IireZ5zHqXxP8A+Emto5NG8P8A9iGBDLKuoS+aJNgLgL5WMb8gc9MGsyPVvjG2g3bvoPhn+1luIxBGNTl8tosPvJPk8EHZgY6FuRjn1qk2ij2y/kQuXzPOI9R+KDa/piPo2gDSWgjN5INQl8xJOd4RfJ5A4xkjP8s6HVfjE3h+8kk0LwyNWWZRbxrqUvltHzuJbyMg9O35V6xtHpS4FP2y/kQcp5q+rfE+PVNHLaNoB01og2ost/KXRt7ZEY8n5vl2nnHJI4xk63wj8c3vxE8HrrOoaVJotw13c2/2SXO4LHMyKxyB1Cg/jXXXQP2eXa2xthw3ocda89/Z/W/X4dr/AGlrdt4guv7Qvc31pKskbD7TJhQV4yowCOxBqpOM6TfKk1YVrM9IooorkRYUUUUwCiiigAooooAKKKKACiiigAooooAKKKKACiiigAooooAKKKKACiiigAooooAKKKKACiiigAooooAKKKKACiiigAooooAKKKKACiiigAooooAKKKKACiiigAooooAKKKKACiiigAooooAKKKKACiiigAooooAKKKKAPMP2gv8AkWPDH/Y36B/6c7evT68w/aC/5Fjwx/2N+gf+nO3r0+kV0CiiimSFFFFACGvKv2Vv+TePAn/YOX/0Jq9VNeVfsrf8m8eBP+wcv/oTUiuh6tRRRTEFFFFAgooooAKKKKACiiigAooooA8s/ao/5Nt+Jn/Yv3n/AKKavwyr9zf2qP8Ak234mf8AYv3n/opq/DKpZYUUUUgCnLE7AEIxH0pv/wCuv2V/4J9wxt+yH4CJjUn/AE/+Ef8AQQuaAPxt8mT+43/fJo8mT+43/fJr+hn7PF/zyT/vkUfZ4v8Ankn/AHyKdhXP55vJk/uN/wB8mkaN1ALKwGcZxiv6Gvs8X/PJP++RXyL/AMFQIUj/AGbrVlRVP9vWvIH/AEympD3PydooooAKKKKACiiigAooooA/SL/gkr/yLfxI/wCvuy/9Amr7+r4B/wCCSv8AyLfxI/6+7L/0Cavv6miWFFFFUIKKKKACiiigAooooAKKKKACiiigAooooAKKKKACiiigAooooAKKKKACiiigAooooAKKKKAIL0BrWYMnmLsbKgZyMdK8y/ZpbT3+F8baZpV1otodRvsWl45aQH7TJuJJ9Tk/jXp13u+zyhSFbYcMeg4PWvPvgD/aX/CvR/a2r2uuXo1C9DXlowKMPtEm1eAOVGAR2INdEf4MvVEvc9HooormKCiiimAUUUUAFFFFABRRRQAUUUUAFFFFABRRRQAUUUUAFFFFABRRRQAUUUUAFFFFABRRRQAUUUUAFFFFABRRRQAUUUUAFFFFABRRRQAUUUUAFFFFABRRRQAUUUUAFFFFABRRRQAUUUUAFFFFABRRRQAUUUUAFFFFABRRRQB5h+0F/wAix4Y/7G/QP/Tnb16fXmH7QX/IseGP+xv0D/0529en0iugUUUUyQooooGIa8q/ZW/5N48Cf9g5f/Qmr1U15V+yt/ybx4E/7By/+hNSH0PVqKKKYgooooEFFFFABRRRQAUUUUAFFFFAHln7VH/JtvxM/wCxfvP/AEU1fhlX7m/tUf8AJtvxM/7F+8/9FNX4ZVLLCiiikAV+zH/BPr/k0PwF/wBxD/04XNfjPX7Mf8E+v+TQ/AX/AHEP/Thc00Jn0RSZpa+Cf+ClHxo8c/CzxV4Jt/CXifUPD8N5ZXMk6WUuwSMroAT9ATTYkfeo+ua+RP8AgqEf+MbbUf8AUetf/RU9fn3/AMNffGf/AKKRr3/gT/8AWr2/9jvxtr/7TnxgHg74p6xeeN/DA0+e+GmapMWiE8ZQJJxg5Adu/epuy0le58YUV+2n/DFfwR/6J1pX5y//ABdef/tCfslfCDwr8C/H2s6T4E02y1Ox0S7uLa5jMm6ORYmKsMtjg0ahofkXR+vtRRQIKPwr9m/Bf7G/wX1DwdoV1c/D7S5biewglkkYyZZmjUkn5/U1s/8ADFfwR/6J1pX5y/8AxdGotD8S6K9y/bY8D6F8Of2lPFfh/wAN6bDpGjWqWZhs4M7E32kLtjJJ5Zifxrw2gZ+kX/BJX/kW/iR/192X/oE1ff1fAP8AwSV/5Fv4kf8AX3Zf+gTV9/U0SwoooqhBRRRQAUUUUAFFFFABRRRQAUUUUAFFFFABRRRQAUUUUAFFFFABRRRQAUUUUAFFFFABRRRQBBfbfsk+9WZPLbKr1IweleY/sztpDfC2P+w7K60/T/7SvgsF5/rA32mTd3PGc456V6fdbvIl2kBthwW6ZwetcB8BW1dvh+Drd9aajqH9oXu6eyAEZX7RJtAwByFwDx2roj/Bl6oh/Ej0WiiiucsKKKKACiiigAooooAKKKKACiiigAooooAKKKKACiiigAooooAKKKKACiiigAooooAKKKKACiiigAooooAKKKKACiiigAooooAKKKKACiiigAooooAKKKKACiiigAooooAKKKKACiiigAooooAKKKKACiiigAooooAKKKKAPMP2gv8AkWPDH/Y36B/6c7evT68w/aC/5Fjwx/2N+gf+nO3r0+kV0EZtvNcq3xW8GR+Jh4cbxbog8Qb1j/sptQhF0WOCq+Vu3ZIIwMdxXVHtXyJ+0PJonxL+IVp4B8MR6fp2o6HfQa9rusyOsUkTqhMVtHnl5XUA/wB1fk6knaDirn0xovxH8K+I9cvNG0nxNpGp6vZFlutPtL2KWeEq21g6KxZSG4ORwaTw/wDErwn4s1O507RPE+kavf2v/Hxa2N9FNLFzj5lViV/GviDR5tDl8KfBxPBJX/hNl8M6qNV+zjE32j+yLnf5nfP2vP3u+DXUfBibTZvE3wBTww0J1RNP1j+2BCV80RebFnzuc53bsA+9IrlR9t15V+yt/wAm8eBP+wcv/oTV2njSx8TX+monhbWNO0W/EmXm1LTnvIymDkbVmiIPTnP4VxP7KQdf2dfAYdgz/wBnLlgMA/M3agjoesUUUVQgooooEFFFFABRRRQAUUUUAFFFFAHln7VH/JtvxM/7F+8/9FNX4ZV+5v7VH/JtvxM/7F+8/wDRTV+GVSywoo/z/n2r9PPBn/BMT4XeIvB+h6rca94sS4vrGC6kWO7tgoZ41YgA254yfU0kHmfmHX7Mf8E+v+TQ/AX/AHEP/Thc1503/BKz4UAf8jB4v6f8/lr/API9eMfEL9qjxb+xP4vv/gv4HsdI1Pwv4Z8v7Hda9DJNeP8AaY1u5PMeKSNDiS4cDCDChQckEl7CP00r81f+Cs//ACOfw9/7B93/AOjErk/+HqXxY/6AXhH/AMArn/5IrxD9ob9pnxP+0pqWj33iey0qyl0uGSCEaXDJGrK5DHdvd8n5eMUAeSV9af8ABMX/AJOY/wC4Jd/+hR18l/WvrT/gmL/ycx/3BLv/ANCjqeo0frZXl/7Un/Jt/wATf+xdvv8A0S1eoV5f+1J/ybf8Tf8AsXb7/wBEtVslH4X0UUVJR/QD8P8A/kQvDf8A2DLb/wBFLW/61+Tuj/8ABT74qaJpFjp0Gh+E2gtII7eNpLO5LFUUKCf9IHOB6Crn/D1L4sf9ALwj6f8AHlc//JNMmxwf/BQz/k7jxr/1zsP/AEhgr5xrtPjH8WNX+OHxE1TxnrsFnbapqKwiWKwjdIR5cSRDaGZmHCDOT1zXF0ij9Iv+CSv/ACLfxI/6+7L/ANAmr7+r4B/4JK/8i38SP+vuy/8AQJq+/qaJYUUUVQgooooAKKKKACiiigAooooAKKKKACiiigAooooAKKKKACiiigAooooAKKKKACiiigAooooAr3237LNvBMfltkDr05rzD9mSTRZvhXG3h+2urTTf7SvwkV4waQN9qkDcjtnOPavUboMbeXYBv2EDI4zjvXB/AldbXwCP+EhktpdTN/eF2tGzHt+0SbQD7DA/CuiP8GXqiXuehUUUVzlBRRRQAUUUUAFFFFABRRRQAUUUUAFFFFABRRRQAUUUUAFFFFABRRRQAUUUUAFFFFABRRRQAUUUUAFFFFABRRRQAUUUUAFFFFABRRRQAUUUUAFFFFABRRRQAUUUUAFFFFABRRRQAUUUUAFFFFABRRRQAUUUUAFFFFABRRRQB5h+0F/yLHhj/sb9A/8ATnb16fXmH7QX/IseGP8Asb9A/wDTnb16fSK6B9ea5C5+D3gK81ltXuPBHhyfVmkWY38mk27TlxjDeYU3ZGBg5zxXX0UxGBpHw/8AC/h/WbzV9L8OaTpmrXhZrm/s7GKKecs25i8iqGYluTk8mk0P4e+FvC+o3GoaN4a0jSb+5/191Y2MUMsvf5mVQT+JroKKB3Yhryr9lXj9nfwIBx/xLl/9CavVTXlX7K3/ACbx4E/7By/+hNSDoerUUUUxBRRRQIKKKKACiiigAooooAKKKKAPLP2qP+TbfiZ/2L95/wCimr8Mq/c39qj/AJNt+Jn/AGL95/6KavwyqWWFfv18L/8AkmnhL/sEWn/olK/AWv008Hf8FQfhx4d8I6JpVz4Z8UyXFjYwWsjxw221mSNVJGZgcZFJA9rH3Zgde9fjP/wUF/5O88e/9w//ANN9tX2F/wAPWvhl28L+LP8Avza//H6+B/2nvitpnxu+OXiXxro9rd2Wnan9m8qC+VBMvl2sUJ3BGZeTGSME8EUxHltFFFIYV9af8Exf+TmP+4Jd/wDoUdfJdfWn/BMX/k5j/uCXf/oUdLqB+tleX/tSf8m3/E3/ALF2+/8ARLV6hXHfGTwbd/ET4U+LvC1hNDb3usaXcWMM1wSI0eSMqC2ATjJ7A1ZJ+CFFfav/AA6m+Jp/5mnwl/3+uv8A4xR/w6m+Jv8A0NHhP/v9df8AxipKPiqirms6ZJour32nTMry2k8lu7R52lkYqSM9uKp0AFFFFAH6Rf8ABJX/AJFv4kf9fdl/6BNX39XwD/wSV/5Fv4kf9fdl/wCgTV9/U0SwoooqhBRRRQAUUUUAFFFFABRRRQAUUUUAFFFFABRRRQAUUUUAFFFFABRRRQAUUUUAFFFFABRRRQBBfbfsc+/Ozy23Y9Mc15Z+y/8A2T/wqlP7EW6XT/7T1DaLxw0mftUmSSAOM9OOBivVLosIZNmPM2Hbn1xXAfAW41u6+H4fxAtqup/2hehvsbK0e0XEm0gqSMlcZ75znnNdEf4MvVEvc9FooornKCiiigAooooAKKKKACiiigAooooAKKKKACiiigAooooAKKKKACiiigAooooAKKKKACiiigAooooAKKKKACiiigAooooAKKKKACiiigAooooAKKKKACiiigAooooAKKKKACiiigAooooAKKKKACiiigAooooAKKKKACiiigDzD9oL/kWPDH/Y36B/6c7evT68w/aC/wCRY8Mf9jfoH/pzt69PpFdAooopkhRRRQAhryr9lb/k3jwJ/wBg5f8A0Jq9VNeVfsrf8m8eBP8AsHL/AOhNSK6Hq1FFFMQUUUUCCiiigAooooAKKKKACiiigDyz9qj/AJNt+Jn/AGL95/6Kavwyr9zf2qP+TbfiZ/2L95/6KavwyqWWFFHpXtunfsV/GvVtPtb6z8A3s9pdRLNDKtxb4dGAKnmTuCKQHiXPrRXuv/DDfxz/AOie3w/7ebf/AOO15P448D678N/FF74d8S6dJpOtWezz7OVlZo96LImSpIOUdTwe9AzCooooEFfWn/BMX/k5j/uCXf8A6FHXyXX1p/wTF/5OY/7gl3/6FHS6gfrZRiiitCAoxRRSGfz/AHxA/wCR88Sf9hK5/wDRrVgVv/ED/kfPEn/YSuf/AEa1YFSUFFFFAH6Rf8Elf+Rb+JH/AF92X/oE1ff1fAP/AASV/wCRb+JH/X3Zf+gTV9/U0SwoooqhBRRRQAUUUUAFFFFABRRRQAUUUUAFFFFABRRRQAUUUUAFFFFABRRRQAUUUUAFFFFABRRRQBBekfZZwxKr5bbivXGDXl/7Mq6Knwtj/sC4u7rTTqV8VlvceYW+0ybs4A43ZA9q9Rut3kShBlthwD9K8++AMerxfD0LrkFnbaj/AGhel47DyvKA+0Sbf9V8ucYz3znPOa6I/wAGXqiH8SPR6KKK5ywooooAKKKKACiiigAooooAKKKKACiiigAooooAKKKKACiiigAooooAKKKKACiiigAooooAKKKKACiiigAooooAKKKKACiiigAooooAKKKKACiiigAooooAKKKKACiiigAooooAKKKKACiiigAooooAKKKKACiiigAooooA8w/aC/5Fjwx/2N+gf+nO3r0+vMP2gv8AkWPDH/Y36B/6c7evT6RXQKKKKZIUUUUAIa8q/ZW/5N48Cf8AYOX/ANCavVTXlX7K3/JvHgT/ALBy/wDoTUiuh6tRRRTEFFFFAgooooAKKKKACiiigAooooA8s/ao/wCTbfiZ/wBi/ef+imr8Mq/c39qj/k234mf9i/ef+imr8MqllhX79fC//kmnhL/sEWn/AKJSvwFr9+vhf/yTTwl/2CLT/wBEpSQPa501fjP/AMFBf+TvPHv/AHD/AP0321fsuzY/+vX42/8ABQK0nl/a68eMkMjqfsGGCE/8w+2qhI+cqKn+wXX/AD7y/wDfBo+wXX/PvL/3wakZBX1p/wAExf8Ak5j/ALgl3/6FHXyl9guv+feX/vg19Xf8E0Vax/aSMtwrW8f9i3Q3yjaud0fc0gP1roqmNXsf+fy3/wC/q/405dUs5GCpdQOzHAVZASasmxaooooA/n++IH/I+eJP+wlc/wDo1qwK3/iB/wAj54k/7CVz/wCjWrAqSgooooA/SL/gkr/yLfxI/wCvuy/9Amr7+r4B/wCCSv8AyLfxI/6+7L/0Cavv6miWFFFFUIKKKKACiiigAooooAKKKKACiiigAooooAKKKKACiiigAooooAKKKKACiiigAooooAKKKKAILzb9lm3NsXy2y2cYGOtebfs5Wuj2fw0SLQtTuNX04ajfFbq6GHZjcyFh9AcgHuBXpN4SLeUhQ52H5T34PFed/s9tK3w5Xz/Dy+F5P7Qvc6csZTb/AKRJ82MD733vx6muiP8ABl6ol7o9LopGOKFJ7iua5fkLRRRQAUUU3cfSi4h1FJSbjSuP1HUUnelp3AKKKKYgooooAKKKKACiiigAooooAKKKKACiiigAooooAKKKKACiiigAooooAKKKKACiiigAooooAKKKKACiiigAooooAKKKKACiiigAooooAKKKKACiiigAooooAKKKKACiiigAooooAKKKKAPMP2gv+RY8Mf8AY36B/wCnO3r0+vMP2gv+RY8Mf9jfoH/pzt69PpFdAooopkhRRRQAhryr9lb/AJN48Cf9g5f/AEJq9VNeVfsrf8m8eBP+wcv/AKE1IroerUUUUxBRRRQIKKKKACiiigAooooAKKKKAPLP2qP+TbfiZ/2L95/6Kavwyr9zf2qP+TbfiZ/2L95/6KavwyqWWFfv18L/APkmnhL/ALBFp/6JSvwFzX78/C//AJJn4S/7BFp/6JSlEHsdPR0ooqiQoooo0DUK+Q/+CoQ/4xttT3/t61/9FT19eV8h/wDBUL/k221/7D9r/wCi5qTGtz8m69L/AGZf+Tivhj/2Munf+lKV5pXpX7M//JxXwx/7GXT/AP0pSkUfutRRSZquhPU/n/8AiB/yPniT/sJXP/o1qwK3/iDkePfEn/YTuf8A0a1YFSMKKKKAP0i/4JK/8i38SP8Ar7sv/QJq+/q+Af8Agkr/AMi38SP+vuy/9Amr7+polhRRRVCCiiigAooooAKKKKACiiigAooooAKKKKACiiigAooooAKKKKACiiigAooooAKKKKACiiigCC+GbWXLbBsYbsZxx1rzP9m+3tbT4ZIlnrTa/D/aN8325k2FibmQkEZPQ8fhXpd9/wAes3yeZ+7b5fXjpXmv7Ou8fDMb/D58MN/aN+f7NKOm3/SZPmw/I3fe/wCBccV0R1oyXmiX8SOE1r4p/EL4tePNb8OfDOXTvD+g6DcG01HxRqUYm33AbDRQIQVYjnqD06rld3rNrqVz8LvhpNf+MvEP9vT6Xby3F7qy2iWxnG5mGIVJUHBVQAeSPevlr9l34GeFfi78L9Wfxg95qclrrV0osVvpIY7WTam6QqhG6Rv7z54UAAc5z49Svrr9iv4paVFqk2uaVouuNpmlahIxYzWSXNsVIPddrMRjgA4HAxXrVcNTk/Zw0UWk9O/W/wCmhyRqSteXU9X8E6x8ZvjU1n4kTXdN+HPhS7xPZaatkl7eXMOQVL78YDjPzKV7EDHJ+kF9CcmvjX4o/A3wboP7PcXxCtdTvl8WWemWl3Z6+t/NkudmxI037Y0IbaoUDaMelfVHw61a91r4e+GdS1I51C80u2uLngL+9eJWbjoOSa48ZGFlOntdq1rbfma0XrZ7+p0frXg3xQ+L3i3UviIfhv8ADO1sf7dgthearreqZNtp0bAFFwOrnKnocbh8pySvtel61Ya7afadOvbfULbJTzrWVZU3DqMqSM18l+APhno3xT+PXxv0nxZPcz2a39tL/ZUV08AuVAk8uR9hDsEUrgZ2/vASD8uIwcIXnOptFf1oOrJpJRe59EeA9D8Z+G/B+oR674ptvGfiGUvPa3MlmllAhMahIT5ecoGUnfjOGPHAFeP+JtF+PPh/wDqnja/+Imn2mq6daSajL4bg0mFrNYowXaLzjli20HnnkY3Y+an/ALNtnD4D+LXxX8FaLey3PgvRXtZ7VZ7gyJYSSIzSwhieBncD6eXzzmnfFDx5dftETXPw2+HT/adGlkEfiHxUoP2S2hVsvDC3/LWRsAcZUgkdCWXpjCcKzSScdG20tv09CHJci6fMs+NPjdr2teEvhHJo+r2ngxvGmGvNauoFljsiIA5jVZPlJdyVXd1wOnWr/wAJ/j9BY+BvEN/4+8U6fdro/iG40W31iCER/wBpKgQo6RR53Md54jBGB3ALHqPid4dOi/DHSvDWheA7bxyIhDYWWn6j5RtrYJGVSaYydFVR1UZJOMjNfMmhWOs/Dfxt4z1aDQdA8Uaj4Btre41E3Za0trQSr5vl6bbouyPaqMTI43Myk8FudKVOjXpSSVu213r36dtfkTKUqck2z7vjYOoI5Bp1ZXhPxBb+LPDGk65ZrIlpqVpDewrKMMEkRXUEdjhhWrXhtcrsdl76hRRRQAUUUUAFFFFABRRRQAUUUUAFFFFABRRRQAUUUUAFFFFABRRRQAUUUUAFFFFABRRRQAUUUUAFFFFABRRRQAUUUUAFFFFABRRRQAUUUUAFFFFABRRRQAUUUUAFFFFABRRRQAUUUUAeYftBf8ix4Y/7G/QP/Tnb16fXmH7QX/IseGP+xv0D/wBOdvXp9IroFFFFMkKKKKAENeVfsrf8m8eBP+wcv/oTV6qa8q/ZW/5N48Cf9g5f/QmpFdD1aiiimIKKKKBBRRRQAUUUUAFFFFABRRRQB5Z+1R/ybb8TP+xfvP8A0U1fhlX7m/tUf8m2/Ez/ALF+8/8ARTV+GVSyw/8A117Fp/7YHxl0uxtrK0+IGqwWtvGsMUSlMIigBQPl7ACvHaKQHtP/AA2d8bf+ii6v+cf/AMTR/wANnfG3/oour/nH/wDE14tRQB7T/wANnfG3/oour/nH/wDE0f8ADZ3xt/6KLq/5x/8AxNeLUUAe0/8ADZ3xt/6KLq/5x/8AxNc34+/aI+I/xS0NdG8V+Lr/AFvTFmWcW1yV2+YoIDcAdmP5151RQAVe0HXL/wAM61Yavpdy9lqVhOl1bXEeN0UqMGVhnuCAao0UAe0/8NnfG3/oour/AJx//E0f8NnfG3/oour/AJx//E14tRQO5NeXc2oXk91cSGW4nkaWSRurMxySfqahoooEFFFFAH6Rf8Elf+Rb+JH/AF92X/oE1ff1fAP/AASV/wCRb+JH/X3Zf+gTV9/U0JhRRRVEhRRRQAUUUUAFFFFABRRRQAUUUUAFFFFABRRRQAUUUUAFFFFABRRRQAUUUUAFFFFABRRRQBXvv+PaX5tnyMN393g815v+zixb4aJu11PEbf2jff6eiMgb/SZPlwwz8vT8K9KvP+PWbK7xsOVx146V5n+zaUb4YoY9B/4Rtf7RvsafiQbf9Jk+b5yW+b73XHPHFdEf4MvVEvdGX4u/ZP8AAPizxJea08WpaTdag5fUE0u+eCK9JPPmr0Oec7cZyT1Oa77R/hv4Z0HwWfCVjo1tD4dMLwPp+0sjo+dwYnJYnJyScnPWuooxUyrVZpRlJtIFCK6Hhmm/sa/DfT9TiuGs9SvdPgl86DRrzUJJbGF85ysZ5PfIYkHPNeoePri603wD4hn06CSe9t9NuHtoYELO0ixMUVQOSSQAAK6LaPSjaKcq9WpJOpK9u4uSKTS0PJf2UvCdz4M+AnhTTr2zlsL7ypLieCeMpIrSSu+GU8ggMBg+lWPiR+zj4O+JWvJrt7HfaVrwRYm1TSLtreaSMDAVscHjjJGcADOBXqW0UtDr1PaurB2bDlXKovocP4K+DPhL4f8AhW+8P6HpgtbG/VlvWMrPNcFl2szyMSxOM/TJxjNeeQ/sSfCi3XbFo99GM5ITU7hf5P8ASve6TFOOJrwbcZu7G4QejRgeBfBOl/D3wvZ+H9Fhkh0yz3+THLK0rDc5dssxJPLHrXGeOv2bvBXxA8SSa3qVvfQ3N0ETUIbG9kt4dRRANqzqp+YDHUYPqelep0VnGrUhLmjJpsbimrMhs7WGxtIbe2iWC3hQRxxRqAqKBgKAOgAqaiisxhRRRQAUUUUAFFFFABRRRQAUUUUAFFFFABRRRQAUUUUAFFFFABRRRQAUUUUAFFFFABRRRQAUUUUAFFFFABRRRQAUUUUAFFFFABRRRQAUUUUAFFFFABRRRQAUUUUAFFFFABRRRQAUUUUAeYftBf8AIseGP+xv0D/0529en15h+0F/yLHhj/sb9A/9OdvXp9IroFFFFMkKKKKQxDXlX7K3/JvHgT/sHL/6E1eqmvKv2Vv+TePAn/YOX/0JqB9D1aiiimIKKKKBBRRRQAUUUUAFFFFABRRRQBz/AMQPBll8RvBOueF9SluIdP1izksriS0ZVlVHUqShZSAeeMgivlIf8EqvhN/0MPjP/wADbT/5Fr7NwD1GaKQ7nxn/AMOqvhN/0MPjP/wNtP8A5Fo/4dVfCb/oYfGf/gbaf/ItfZlFFgufGf8Aw6q+E3/Qw+M//A20/wDkWj/h1V8Jv+hh8Z/+Btp/8i19mUUWC58Z/wDDqr4Tf9DD4z/8DbT/AORaP+HVXwm/6GHxn/4G2n/yLX2ZRRYLnxn/AMOqvhN/0MPjP/wNtP8A5Fo/4dVfCb/oYfGf/gbaf/ItfZlFFgufGf8Aw6q+E3/Qw+M//A20/wDkWj/h1V8Jv+hh8Z/+Btp/8i19mUUWC58Z/wDDqr4Tf9DD4z/8DbT/AORaP+HVXwm/6GHxn/4G2n/yLX2ZRRYLnxn/AMOqvhN/0MPjP/wNtP8A5Fo/4dVfCb/oYfGf/gbaf/ItfZlFFgufGf8Aw6q+E3/Qw+M//A20/wDkWj/h1V8Jv+hh8Z/+Btp/8i19mUUWC549+zz+zD4W/ZnsdbtfC+oavfR6tJFLO2rzRSFTGGC7fLjTA+Y5yD2r2GiigAooopgFFFFAgooooAKKKKACiiigAooooAKKKKACiiigAooooAKKKKACiiigAooooAKKKKACiiigCC8z9nl2na2w4Y9jjivOP2dPtX/CtlF5rsXiOcajfA38Lu6sPtMmFy6qcqML0xxwSOa9Gvtv2WbcnmDy2yueox0rzH9meWym+FqNYaPJoNv/AGlfr9hkleRkYXUgYktzycn8a6I/wZeqJe6PVqKKK5ywooooEFFFFABRRRQAUUUUAFFFFABRRRQAUUUUAFFFFABRRRQAUUUUAFFFFABRRRQAUUUUAFFFFABRRRQAUUUUAFFFFABRRRQAUUUUAFFFFABRRRQAUUUUAFFFFABRRRQAUUUUAFFFFABRRRQAUUUUAFFFFABRRRQAUUUUAeYftBf8ix4Y/wCxv0D/ANOdvXp9eYftBf8AIseGP+xv0D/0529en0iughPPtXyp8cP2mPEnh74v+F9J8JT2zeGLfVbbTdauDEsguZ5SjtBGxBwUiKElT1lx1GB9V4r5w+Jn7Efgzxjrei6hpCS6IYdWXUdTjW8upPtq5Xcqgy4jYhcBlHH4Uhxt1OZ0H46fEfwrH4O8XeLL+y1Twx4w0m+1a30m2tVjksFjspb6JBIADJ+6jVST3J9K1fhT8YfHn/CTfDubxZrNvqmleOre+eCxt7KOJtPkhdAih1GXDLJyT0xWj4X/AGV9Wgv9E0/xT4qi1vwd4bsbvTtG06C0MNwIZoJLZRPJuIcrBIyZVVyQD61pfDP9nPW/CviPwrceIvEVlrek+EoLqDRba2snhmzO6szzuZGDMuxQNoUYzmkXpY9q8QeKNH8J2q3Wt6tY6Pas2xZtQuUgQse25yBn2rzz9lNlk/Z38CMrBlOnLgg5H3m716Pq2h6b4gtRBqen2mpW4bcIruBZUz64YEZrzj9lRQv7O/gMAYH9nLx/wJqZn0PV6KKKoQUUUUCCiiigAooooAKKKKACiiigAooooAKKKKACiiigAooooAKKKKACiiigAooooAKKKKACiiigAooooAKKKKACiiigAooooAKKKKACiiigAooooAKKKKACiiigAooooAKKKKACiiigAooooAKKKKACiiigCC8z9nlAbYxRvnzjHB5/CvO/2fPt3/CuVGoa+niW6/tC9zqCTvMCPtEm1Qz8/KMLjoMcV6HfFVtZyw3L5bZXOMjHSvLv2YbjSrr4Vxvo1hNplh/ad+Ft7iUSuGF1JuO7A4JycY4zjnrXRH+DL1RD+JHrNFFFc5YUUUUAFFFFABRRRQAUUUUAFFFFABRRRQAUUUUAFFFFABRRRQAUUUUAFFFFABRRRQAUUUUAFFFFABRRRQAUUUUAFFFFABRRRQAUUUUAFFFFABRRRQAUUUUAFFFFABRRRQAUUUUAFFFFABRRRQAUUUUAFFFFABRRRQAUUUUAeYftBf8AIseGP+xv0D/0529en15h+0F/yLHhj/sb9A/9OdvXp9IroFFFFMkQADpx3o2j0paKAEryr9lb/k3jwJ/2Dl/9CavVTXlX7K3/ACbx4E/7By/+hNSK6Hq1FFFMQUUUUCCiiigAooooAKKKKACiiigAooooAKKKKACiiigAooooAKKKKACiiigAooooAKKKKACiiigAooooAKKKKACiiigAooooAKKKKACiiigAooooAKKKKACiiigAooooAKKKKACiiigAooooAKKKKACiiigCG7Yi3l2sEfYcMTjBwea89/Z/n1O4+HaPq+t23iC9+33oN9ZziaNl+0SbVDD+6MLjtivQL4hbWcsMp5bEjuRjpXl37MMmlzfCtH0exutOsTqd/tgvJRJIG+1SbiSFXgnJAxwOMmuiP8GXqiH8SPWaKKK5ywooooAKKKKACiiigAooooAKKKKACiiigAooooAKKKKACiiigAooooAKKKKACiiigAooooAKKKKACiiigAooooAKKKKACiiigAooooAKKKKACiiigAooooAKKKKACiiigAooooAKKKKACiiigAooooAKKKKACiiigAooooA8w/aC/wCRY8Mf9jfoH/pzt69PrzD9oL/kWPDH/Y36B/6c7evT6RXQKKKKZIUUUUAIa8q/ZW/5N48Cf9g5f/Qmr1U15V+yt/ybx4E/7By/+hNSK6Hq1FFFMQUUUUCCiiigAooooAKKKKACiiigAooooAKKKKACiiigAooooAKKKKACiiigAooooAKKKKACiiigAooooAKKKKACiiigAooooAKKKKACiiigAooooAKKKKACiiigAopD+VFAxaKKKACiiigAooooAKKKKQgooooAhu9xt5Qn+s2HbxxnFee/s/t4hb4dqfFHlnV/t97v8t42Xb9ok2cxkr93Hf6816BfY+yT7s7fLbO3rjFeWfsvrpC/CqIaHNfXGnf2lf7ZNQRUm3fapNwIVmGAc4OenYdK6o/wZeqJfxI9booorlKCiiigYUUUUCCiiigAooooAKKKKYwooopAFFFFABRRRTEFFFFABRRRQAUUUUAFFFFABRRRQAUUUUAFFFFABRRRQAUUUUAFFFFABRRRQAUUUUAFFFFABRRRQAUUUUAFFFFABRRRQAUUUUAFFFFABRRRQAUUUUAFFFFABRRRQB5h+0F/yLHhj/sb9A/9OdvXp9eYftBf8ix4Y/7G/QP/AE529en0iugUUUUyQooooAQ15V+yt/ybx4E/7By/+hNXqpryr9lb/k3jwJ/2Dl/9CakV0PVqKKKYgooooEFFFFABRRRQAUUUUAFFFFABRRRQAUUUUAFFFFABRRRQAUUUUAFFFFABRRRQAUUUUAFFFFABRRRQAUUUUAFFFFABRRRQAUUUUAFFFFABRRRQAUUUUAFFFFADWbapPYDNfKvxu/bKb4a+MJNFsbOK5aIDezZ6kZ7V9VS/6p/pX5HftO3Esfxs8RLtyVdR/wCOCvNxtaVGCcT73hHLcNmOKnHEx5klsfUuk/8ABQi1fat5org92Q8V1dv+3l4VaNTNavEx7Fq/Nn+0plh2h8ZOT2p/9rzs2S2TXlrMKnU/VZ8HZPU1VNr5n6XJ+3Z4Lb7yuvvn/wCtVmP9uTwK3WVh9AT/AEr8yv7an8nbuYEnJIqT+2p/ODeZwB0P860/tCZi+CMo7S+8/TlP22vATdblh/wBv8KtJ+2h8PmIH29gf+ubH+lfl0Nan8kjfkk8GpRrUjSqSyjC8g0f2hMzfAuU95ff/wAA/VC3/a++Hc4GdWCZ9Y3/AMKtL+1h8O2/5jKL/vKw/pX5SLrUn2dgCpZj971+lP8A7Zk85Nyqcfwnt9ar+0ZdjJ8B5Y9py+9f5H6vx/tTfDyQ/wDIehHpnIqyv7THw+fp4htR9XxX5LNrj+Sw2qct1HT8KlXxEZGRWRVRR+Jo/tKXYh8AZf0qS/A/WWb9orwFNDII/ENkZChCgyDk44BrjfgH8cNAj8BpFr+paRpWqG/vGa1tjHCiqbhyh2rgcqQc985NfmP/AG0fIbcAGzjcDyB/Wm6NrDWttCBuaMBiG6E5J/KvQp45vCzlbqjzKvAmCWJhRVR6p9uh+xC/GjwU3/Myad/4EoP61Knxg8Gv08R6af8At5T/ABr8e18RStGeZN+f7/Spf+EhbzY/3kuz/f5bn9K4f7Sf8p1Pw8wz2xD+5H7Cr8U/Ccn3df08/wDbwn+NTp8RvDT/AHdbsW+lwn+Nfjj/AMJFNsJ8ybfnGPM6CpW8Rzps23M5J6jzOaf9pf3TN+HVDpiH93/BP2PXx3oEmNur2Z+k6/41Yj8V6RL9zUrVvpKK/GdPF14qgi5uQc4++eKuw+L9Q3ZF/dKO3znnrxT/ALS/umcvDuHTE/h/wT9k11ywfG28gP8AwMU8arZt0uYj/wACH+NfjYPH2sxx7v7Uul7ffOB+tPh+JWuK21dYuvc5Pv05o/tJdYmT8OX0xK+7/gn7J/2hbHpcR/8AfQpReQE8TIf+BCvxyj+KniSNVI1u6x6bj/jVyH4yeKbc/Lrt5kc9TT/tKPWJlLw5q/ZxC+4/YQXEZ/5aL+dO8xOzD86/IOH9oLxrb5ZPEN0D2AJNaEP7Tfj2NgB4kucDrup/2lDsYS8OsWtq8fuZ+tm8f3h+dG8eo/OvyeX9qz4gRt8niCYj3NWof2wPiHHjOuM31qv7Sp9jB+HeP6VI/ifqxuHrSeYv94D8a/LOL9sj4ibsDWA2eOQap61+1X48vkCf27LknnbxzVPMadr2Mv8AiH+PTs6kfxP1ZVg3IOR7UteQfsq+JtR8WfCHS9Q1SZri6cuDIx5IDEV6+K9KnLnipLqfnGLw7wtedCT1i7BRRRWhyBRRRQAUUUUAFFFFABRRRQAUUUUAFFFFABRRRQAUUUUAFFFFABRRRQAUUUUAFFFFABRRRQAUUUUAFFFFABRRRQAUUUUAFFFFABRRRQAUUUUAFFFFABRRRQB5h+0F/wAix4Y/7G/QP/Tnb16fXmH7QX/IseGP+xv0D/0529en0iugUUUUyQooooAQ15V+yt/ybx4E/wCwcv8A6E1eqmvKv2Vv+TePAn/YOX/0JqRXQ9WooopiCiiigQUUUUAFFFFABRRRQAUUUUAFFFFABRRRQAUUUUAFFFFABRRRQAUUUUAFFFFABRRRQAUUUUAFFFFABRRRQAUUUUAFFFFABRRRQAUUUUAFFFFABRRRQAUUUUANl/1b/SvyI/agkEnxy8RneV/eL/6AtfrtN/qn+hr8hP2lM/8AC6vExxuHnD6/dFeNmXwI/U+Af96qvyPK5M/xYJ9RTPxp77WxtyB6HtTT7cn0r5y5+6RV0KPlGMCmnFO9DSdPek2aqKYgFL6cdKWkouVyoTtTwDwxORmm/j9KOnFK5LjqH06UoGRmkPajPNMqwYO0j1PSmW+RCgPynnKjoOaee9R22Ps0e0ll5wx6nk16VP8A3Oo/NHlVV/t1L0ZL8w6HA9e9LltxOefWk3Ed8ZpPpXnXPU5RQx9cDtS7myWBOfWhn3KFxjFN9hQOwu5tuNxxnP41JDdSwNuVslTnBAIqPmjPtRewpRJJrqWbdvY/McnAwP0pvmsrKynkCm7vlxik4pc1xJDxI+3AJHOTzS+YZJCWYgHjrTPrR9KLjegvPIHOKEkO484JpFyKUZOaZF2HmMBgnvQZWJbpk+1HWk44oHdj1JVlPQ1KruzKvGA1QH73c+lWMFXXIwcjApmEpPU/Vn9jVQnwL0UDrlz/AOPGvca8O/Y4yPglpI93/wDQjXuNfZ0P4cfQ/lLN/wDf63+JhRRRXQeQFFFFABRRRQAUUUUAFFFFABRRRQAUUUUAFFFFABRRRQAUUUUAFFFFABRRRQAUUUUAFFFFABRRRQAUUUUAFFFFABRRRQAUUUUAFFFFABRRRQAUUUUAFFFFAHmH7QX/ACLHhj/sb9A/9OdvXp9eYftBf8ix4Y/7G/QP/Tnb16fSK6BRRRTJCiiigBDXlX7K3/JvHgT/ALBy/wDoTV6qa8q/ZW/5N48Cf9g5f/QmpFdD1aiiimIKKKKBBRRRQAUUUUAFFFFABRRRQAUUUUAFFFFABRRRQAUUUUAFFFFABRRRQAUUUUAFFFFABRRRQAUUUUAFFFFABRRRQAUUUUAFFFFABRRRQAUUUUAFFFFABRRRQAyb/Uv9DX5CftJqP+FzeI/m2kzDB/4CK/Xi7by7WVj0Ck/pX49/H7Uf7S+LHiOZAHU3G38gBXi5l8MT9V4Bi/rNZ+SPNps7vmwT6jvSc9e/rSyY3fLkD0NIPT9K+bZ+50/MU+nQ0n0pcelIaT1NlEX1pM0fw0dKRQAZz+tHt+tHSjP5UgDPPNGe4oFBqgD8KjtxiBMrtPOV9OTT81Ha8W6bTuXnDevJr0af+51PVHlVv99pej7f8OS0etHFDHOK8656oY4pKUfMaPrSAXpSUE+lGaQB17/Sl/nQPpmkznv9KY7C4P8AhTlXP3uB39abk0buh/CgGObBC44H86T7tN/ipxP50GfKHrg5NGB64NHG2jAOKZLHxnDfeAPfNSrgsWySMjn1qJcemfSpf4wG4OegquhhLqfqv+xu2fgnpXcZb/0I17nXhf7Gi4+CWk/V/wD0I17pX2mH/hR9D+Us3/3+t/iYUUUV0nkBRRRQAUUUUAFFFFABRRRQAUUUUAFFFFABRRRQAUUUUAFFFFABRRRQAUUUUAFFFFABRRRQAUUUUAFFFFABRRRQAUUUUAFFFFABRRRQAUUUUAFFFFABRRRQB5h+0F/yLHhj/sb9A/8ATnb16fXmH7QX/IseGP8Asb9A/wDTnb16fSK6BRRXM658TfCHhfWbfSNZ8VaJpOrXAUwWF9qMMM8u4lV2ozBjlgQMDkjFAjpqK5vRfiP4V8Sa3d6NpHifRtV1iz3i50+yv4priEq21t8asWXDcHI4PFJoHxK8I+LNSuNO0PxTous6hbcz2mn6hDPLFzgllRiV79RQFmdIa8q/ZW/5N48Cf9g5f/Qmr1XtXlX7K3/JvHgT/sHL/wChNQPoerUUUUxBRRRQIKKKKACiiigAooooAKKKKACiiigAooooAKKKKACiiigAooooAKKKKACiiigAooooAKKKKACiiigAooooAKKKKACiiigAooooAKKKKACiiigAooooAKKKKAKOuMU0e8YdomP6V+MXxKn+0ePNdkL7WN0/zfjX7L+KJPJ8O6i56Lbuf/HTX4veNZPO8Waw4TeGuXJ/OvCzP7J+weH8ferv0MGTJf5uT6+tIRnA70Nt3fLnHvSV8/I/aobC59etLkUnUE/lSVBoLxS/jTaKBhntSn3pKBQAtJRRQAueMHpmorfPkJldh5+UduTUn44NR2+PITDbxz83rya9Kn/udT1R5VZr67S9H2/4ckooorzD1BdvvSGiigdwooopgKD+dHrxQPpR+FAxe1NFL3ooAP5UenFHU0c0DF60uQAOab60vpQS0tyWNS3O7b68VKq7WGORnqahiUs2FAIz/FUzEmT5vvDH3elX0OWW5+q37Ghz8EtJ/wB5/wD0I17nXhX7GJ/4slpX+8//AKEa91r7TD/wo+h/KWb/AO/1v8TCiiiuk8cKKKKACiiigAooooAKKKKACiiigAooooAKKKKACiiigAooooAKKKKACiiigAooooAKKKKACiiigAooooAKKKKACiiigAooooAKKKKACiiigAooooAKKKKAPMP2gv8AkWPDH/Y36B/6c7evT68w/aC/5Fjwx/2N+gf+nO3r0+kV0EOM+9fBHxF8TeJPAPjX4s+JJJ/D9zdx65Z2p0W9sfNvbuJrCEoYJiSYwBwMKfmLkkd/visDUfh/4X1jXINav/DekXusQFTFqFxYxSXEZU5XbIV3DB6YPFA4ux8N6QuhXHhb4OQ+CFUeN08NaqNUNsMTi4/sm5V/MPXP2onqfSun+DK6ZJ4m+AP/AAi6wDVEsNYOsGEL53lebFnziOp3bsA89a+v9J8B+GdB1i71bTPDuk6dqt2Wa4vrSxiinmLNuYu6qGbJ5OTyeaTQ/h/4X8M6hPf6P4b0nSb64GJrqxsYoZZB6MyqCfxpWKc9LEXjbSvEmr6WsHhnxBaeHL5ZNzXV3pv25Sn90J5seD05z+FcV+yiGX9nXwEHbc/9nLlgMZ+Zu1ermvKv2Vv+TefAn/YOX/0JqCOh6tRRRVCCiiigQUUUUAFFFFABRRRQAUUUUAFFFFABRRRQAUUUUAFFFFABRRRQAUUUUAFFFFABRRRQAUUUUAFFFFABRRRQAUUUUAFFFFABRRRQAUUUUAFFFFABRRRQAUUUUAYXjqTyvB+sP6Wsn/oJr8XvEDeZr+oEyeWWnYg9utfsz8Sn8vwHrjdMWkn/AKCa/F/VmLareEp5i+a2QPrXgZlvFH7RwAv3VeXmijICsjc59xTaVsbjjgehpB79K8CW5+xR2D1oooqTWwUUUUAFFFFAgoorsPhF4Hh+I/xC0nw7cXElrDeM4aaIAsu2Nn4B/wB2rpwdSShHdnLiMRDC0pVqj92Kuzj/AGqO3bdCh27Tz8uOBzX2fN+wroMcbN/wkuoJgE5KJjj14rybQ/hH8NbYS2upePvMubYyebPHERAu2QqBu29SMf4Yr6rD5PiqmGnCMbu6PzmrxllLxdOam7WfQ8QWGRlDbGCHoxHela3kXOUbK8nIxX1K37OvhO+h04WvxIgEeobjaIssY80qPmKgenAzVXw7+zb4Y8aaldWWl/EeLU7qHIligfc2BxuGeo+lccsmxUV8B3x40yl/8vfwZ8wlStJX1Z4k/ZP8J+B9PF74h8ZtYWsjCKN51C7nPYcc8AnisVf2c/h5NfafYp8RozdagFa1UFCJNx2rjjueMevFTHJcdNc0ad0W+Ncoi7Or+B820V9BH9n/AMBXHk/ZPiPDOHu0siywkqkjqxUMQuBnYRk8Z/CvL/ih4P0fwPrK2Wla3/bcau8ctysLpHvUjIUkANjPOCcVjVyfG0YuUqbsehg+KsqxtRUqVX3mcbRk0zzkBKlvmFBmTH3v0rmWX4x6+yl9zPd/tPBR0lWivmiTP50nNIGBAI5zSCVGzz0rmp4etVv7ODdt9NjqqYmhR5fazUb7Xe47ml+tM85FUHdgGhZFkzgkkdiK0qYPEUouc6bSXkZ08dhqs1Tp1E2+iY/HWlVsU3PHNLmuQ7R6sA3f8Klzukygwue9M2p8pDAsT90jpTjjflgc9sdKp7HLLc/Vf9jA5+COl/7z/wDoRr3avBv2LG3fBHS/95//AEI17zX2mH/hR9D+Us4/5GFb/EwooorqPGCiiigAooooAKKKKACiiigAooooAKKKKACiiigAooooAKKKKACiiigAooooAKKKKACiiigAooooAKKKKACiiigAooooAKKKKACiiigAooooAKKKKACiiigDzD9oL/kWPDH/AGN+gf8Apzt69PrzD9oL/kWPDH/Y36B/6c7evT6RXQKKKKZIUUUUAIa8q/ZW/wCTePAn/YOX/wBCavVTXlX7K3/JvHgT/sHL/wChNSK6Hq1FFFMQUUUUCCiiigAooooAKKKKACiiigAooooAKKKKACiiigAooooAKKKKACiiigAooooAKKKKACiiigAooooAKKKKACiiigAooooAKKKKACiiigAooooAKKKKACiiigDkPi5J5Xw38QN6Wkn8jX4yX0gbULg79h8xv51+yfxrbb8LfER/6dW/lX41XQb7VMSm8F2zXz2Z/FE/buAI/wCz135r8is+dxzQKQ9eORS14LP12OwUUUUjTQKKKKVwCkpaKLgxO1esfsqqW+OvhvHUG4P/AJAkryevW/2Uf+S7eHP+2/8A6IkruwOuJh6nzXED/wCE2s3/ACs+/fE1zcwaDqElnGJroROUjxnccHAxX53+L/HFt4Fs/EHhsWcv9rtrK6paXduwAtnBUlCD3XGOvGK/R6YHr261+WP7QClvjV4zBHH9qXB5H/TRjX6NDE1sJiFUjLRq1vTW5/IUsO69eF5NLU6bwx8aNC0TQ/DCy6PdXOo6Xfy3c1zlAWR02lVOfUZz71X+HPx6/wCFb+Mn1q106a6tIUkis7OZxhI3kLFcg9eWwcdetL+y74A0X4jfE5dI121a70/7HJK0YlZCWBXGCpB7mrf7VHwz0f4bfEOPTPDtg9rpslrHLsLtISTkHJJPXmvRjmWJtLms1LyOz6nSUuXmZu/HX9pjQ/jBHoijQ72KPT5JHeHz0TzNyYBDc9Dg9OlcU3xynMHhxjYMdV0B1NlqHmAfu1ffskTndgkgEEcEV5fJbSIGZlKrwScdM19BfshfCfwz8VNZ8QReJLFtQjtII3hTzmjwSxBPykelZYfMsRRgqSV0r7+ZUsHTSc3JszPCnxQsvGGs+JdOlhOjQ+JIVEtuZFaM3AkDh0P8JyMAYPVuckVU+K1rc2nhHwjot5YTWGoaSbqFzPCV81GlEgkBxyCHA/DmqnxX8J6Z4J+Pq6No8H2fTrfUIRHH5jPj94OpYkk/jXuP7cEIWPwJIAMm2mHT0EVeVjczxMXVqX6Ky6JrT8T2uGcvp1M7hCUm4yT0PlB7eR2bAADEHdnileCSSZpCv3hjYGxg+v0q1S15EeKsbFJcq09f8z95/wBS8uqNyk5Xfn93QZCW8sb12kZHXIqBYZY5GZETJ7k9R6CrVFebRzqth6lSdOCSnuuh7OI4ew+Kp0YVpybp7PS/5WKvky7NrJuGcgE9PrUsLFtzEcHoehqXtjtRWmJzyriqMqU4Jc3VXM8Hw5h8DWhWpzb5ejt/wA9KVaSivmj6wk27sZ49PepP4hjgZ5BqJexB79PSnt97JyzcfN+NX0MJan6p/sUNn4I6b/10f/0KvfK8B/Yj+b4I6f8A9dH/APQq9+r7PDfwo+h/KWdf8jCt/iYUUUV1HiBRRRQAUUUUAFFFFABRRRQAUUUUAFFFFABRRRQAUUUUAFFFFABRRRQAUUUUAFFFFABRRRQAUUUUAFFFFABRRRQAUUUUAFFFFABRRRQAUUUUAFFFFABRRRQB5h+0F/yLHhj/ALG/QP8A0529en15h+0F/wAix4Y/7G/QP/Tnb16fSK6BRRRTJCiiigBDXlX7K3/JvHgT/sHL/wChNXqpryr9lb/k3jwJ/wBg5f8A0JqRXQ9WooopiCiiigQUUUUAFFFFABRRRQAUUUUAFFFFABRRRQAUUUUAFFFFABRRRQAUUUUAFFFFABRRRQAUUUUAFFFFABRRRQAUUUUAFFFFABRRRQAUUUUAFFFFABRRRQAUUUUAcF8dm2fCnxGen+itX443X/H5MBJsO9uv1r9fv2kL8af8HPEcpOP3GPzIFfj7cSeZPIxTO5if1r53MvjSP3LgGP8AslV/3kQt9485NFJ96lrwLn6zEKKKKLlBRRRUjCikJoqgBulet/soZ/4Xt4cx/wBN/wD0RJXkh6V63+yexX47eHP+2/8A6Ikr0MD/ALxB+Z8xxC/+E2v/AIWfoc4yoNfmT+0hYyaj+0N4lsbYL59zfrFGpIUFmCgc/U1+m7DJFfmZ+0dqL6T+0Z4kvIkV5bbUEmVWGQSoUgHp3xX3mI+OFz+UaV/axt5ntX7LP7Pvjf4d/ExNa1/So7PT/sckfmLOjksxUqMA98Gvr2azhuQPNhjcjgFxmvhQft8eNY1ATQ9CKqAP9VN6Y/560v8Aw3x415J0PQz8v3fKm/8AjtdEZwSt0NpU5ydz1748/Ebw54k+EvjPSo1TTtQtLtbGKOYKGndJl3FApJxhTycVxv7G/hib4e6tq11rmoaVajU7aFbaNdRieRiTuA2hjjqOPWtGz/Ztv/iTo6eJ4detbefxCr3c8D2hkWFZXjkxF82VbKYznoa7jRf2PvB+l6vp2rHUNXkvrOSGbas0QiaRNp+75ecEjpmvdqUcA0pc7v5HCqldXhY+Svjd4q0/XP2gbvU7EXEtrHexscxlXba+ThW59MAgHmvYP2rvFmn+PPA/w71zTPNFrKt3HtmTa6shiVlIz6g15B+0Ro7aF+0HraQSDdPerMhVRhN0mQPwOOK9R/aE8F/8IR8HfhzYyXJurlmvLqWXbtBeUwvwOwGQPwr5/OKeC+qzdB3mfVcK1KqzygprSx88ilpF9+tLX5ef1jDYKKKKDQKKKKBhR6c4opRQJki+XtbcGDDoQMg07zD91eFz0NMxngcfWpJOHG7aeMZQVXRmLP1N/YibPwQsP+ur/wA6+gK+e/2HWz8EbH2mcfrX0JX2eF/hR9D+Uc7/AORjX/xMKKKK6zwwooooAKKKKACiiigAooooAKKKKACiiigAooooAKKKKACiiigAooooAKKKKACiiigAooooAKKKKACiiigAooooAKKKKACiiigAooooAKKKKACiiigAooooA8w/aC/5Fjwx/wBjfoH/AKc7evT68w/aC/5Fjwx/2N+gf+nO3r0+kV0CiiimSFFFFACGvKv2Vv8Ak3jwJ/2Dl/8AQmr1U15V+yt/ybx4E/7By/8AoTUiuh6tRRRTEFFFFAgooooAKKKKACiiigAooooAKKKKACiiigAooooAKKKKACiiigAooooAKKKKACiiigAooooAKKKKACiiigAooooAKKKKACiiigAooooAKKKKACiiigAooooA8W/a+mMPwJ8QEHqiD/x4V+SvVm+bB9K/Vv8AbUufI+A+tDP32jX/AMeB/pX5REHAJXPvXzWZfxUfvnAcf+E+T/vCUUc55orwnufp8RaTNFLSKEpaKTmnYBaSlopgxD0r1n9lMgfHbw3k45n/APREleTNXqf7Lrbfjr4Y/wB+cf8AkCSu/Av/AGiHqfNcQf8AItr/AOFn6LEYP64r8xv2n7eST4/eK41jZ5ZLwCNVGSSVAGK/Tkoc9MenNfmx+05ejSv2idVuyC/2e8jmK9M4IOK++xGsoH8n05NVY28y38Bfh+PDPj63v/iHoLWXhloJEM2sWh+z7zjaDuXGTzVP9qq48HXnjizfwUumrpv2JQ/9mxJGhkyc5CgDPT9K6j48/tVaV8XfAMfh+00S5sZVuI5jPNOGGFVgRtCju3rXzZtzkfdzSm4pcqPRgm3dnrXwF8c+Io/iV4Xsl13UvsQmMYtftTmILsb5dmcY/Cv0xOGBULjtj1r8lfAHihfBfjDS9aaEzpYy7zGp2lhtI64PrX1tN/wUE0ncxXwjckf9f4H/ALTrWlNJNMwrU5SaaPGf2pYxH+0VeMMgmWFjz3zXuH7Xyb/hX4AkxkiHGfTMcP8AhXy98UviRB8VPil/wkUNk2nLcSxAQPKJCMN67RX1l+1la+Z8D/CNxniNYRj/AHo4/wDCvIxnvKpb+X9T2shly51hz42WnU1adXwx/V1PYKKKKDYKKKKAAU84jxzuPf2pvT60lAhWyecfjUuP4l+Ud1NRbj249qmkzxvO4/3lquhlI/Uj9hn/AJIlZj/pu/8AOvoavnb9hfP/AApG0/67v/Ovomvs8N/Cj6H8pZ5/yMq/+JhRRRXWeEFFFFABRRRQAUUUUAFFFFABRRRQAUUUUAFFFFABRRRQAUUUUAFFFFABRRRQAUUUUAFFFFABRRRQAUUUUAFFFFABRRRQAUUUUAFFFFABRRRQAUUUUAFFFFAHmH7QX/IseGP+xv0D/wBOdvXp9eYftBf8ix4Y/wCxv0D/ANOdvXp9IroFFFFMkKKKKAENeVfsrf8AJvHgT/sHL/6E1eqmvKv2Vv8Ak3jwJ/2Dl/8AQmpFdD1aiiimIKKKKBBRRRQAUUUUAFFFFABRRRQAUUUUAFFFFABRRRQAUUUUAFFFFABRRRQAUUUUAFFFFABRRRQAUUUUAFFFFABRRRQAUUUUAFFFFABRRRQAUUUUAFFFFABRRRQB85/t3TeV8Dbsf3riMfzr8t174fHHQ1+nP7f8xi+CoX+9eRj9Gr8xgV2/MmfcHFfL5j/G+R/QnA6tld+8mMzS9aQ5+lKteK9z9GiwpaKQ+9IoWikp2aC0NNFLSdKCZB616f8AswyeX8dvCxPTzJh/5Bkry+vTP2aSB8cvCpP/AD2l/wDRMld+C/jw9T5zPv8AkXVl/dZ+j7jrg815F42/Zr8C+P8AxFcazrGnzT39w2XZZmUE/QGvXZD1OcHpmqkyqjZ6n1r9KlThUVpo/keUVKzfQ8RX9jT4YsMHSbof9vT/AONOf9jj4Y7sjTLnjr/pT8/rXtSzbRxTWYs2ScfSsfq1LsHIu54i/wCxz8Muf+JRcn/t7f8AxpF/Y5+GI5Gl3Gf+vuT/ABr3BevXFRtG0jcHjPWn9Wpdg5EeM2P7HPw0iuI5hpNwGjYMP9LkIyPbNRfti6ZHZ/BCGCBNsNtdQRoPRQCB+gr3mAdhye9eOftgwiX4Iage6XMLg/nXLiaEIUJuK6HuZHaGZ0J+aPz6yetPpi/1p9fnB/XNJ3QUUUUrnQFLkDmkoouMKKKKYriqO5HHrUjYXGBsH900wMVXg9+lPkZmYeYcnsaZk0fqP+wuf+LJWn/Xd/519E185/sKH/iydsB2uH/nX0ZX2mF/gx9D+Us9/wCRlX/xMKKKK6zwgooooAKKKKACiiigAooooAKKKKACiiigAooooAKKKKACiiigAooooAKKKKACiiigAooooAKKKKACiiigAooooAKKKKACiiigAooooAKKKKACiiigAooooA8w/aC/5Fjwx/2N+gf+nO3r0+vMP2gv+RY8Mf8AY36B/wCnO3r0+kV0CiiimSFFFFACGvKv2Vv+TePAn/YOX/0Jq9VNeVfsrf8AJvHgT/sHL/6E1IroerUUUUxBRRRQIKKKKACiiigAooooAKKKKACiiigAooooAKKKKACiiigAooooAKKKKACiiigAooooAKKKKACiiigAooooAKKKKACiiigAooooAKKKKACiiigAooooAKKKKQHyt/wUMm2fB+1XP3r9P/QXr81o2fawVht7qTX6Nf8ABRW7SP4Z6Zbk/O96rAfRW/xr84fl64r5bMP4x/RPBa5cpjf+Zjadj0pv0p9eO9z9CiJ3o5zS0Ui7IKT3o5padiRKTpTqT8KQhtek/s4Ns+NvhY9vPk/9FPXm5+leh/s9sU+M3hYj/n4YfmjD+tduDf7+PqeBnacsBWX91n6TyfeP+TULLv4I/Gp2Xd0PNNZD6V+npo/klxZh+J9Zg8L6HdancxXE8NuuWjtIWmkPsFUEn8q4mH4z2F74V0PV7TTby5u9bme3sdLUBJ3dWYEHOAuApJyeK9PkiMsLpgZKkdO+K8ht/hP4j0HSfCV1p5srrVtB1K6unt5pXVJ4pnlyocKcNtkPYjIpNlxXc7XwL4ztPH/h+LVbCOWFC5ikhnXa8UigblI9RmulUDkk/hXH/B7wDe/D/wAKy2eovFLf3l5Lfz+QSY1eTGVUkAkDHpXcrF8uNv14ppkta6DYxg56D0FeWftSW/2r4I+IcDPlqsn5Zr1hY9vSvPP2ibdrj4J+LlHaxdun+feubEWdGa8j0ctbjjaMv7y/M/NNKcKYvqKkr8ve5/X1H4UFFFFSdAUUUlIegtFJS1Qh3ATJzk9PSnccbDn1zTAu4Y/SpZQVwGAP+0tMzk2fqB+wh/yRGD/r4kr6Pr5u/YNbd8Eof+vmSvpH1r7XC/wY+h/Keff8jOv/AImFFFFdZ4IUUUUAFFFFABRRRQAUUUUAFFFFABRRRQAUUUUAFFFFABRRRQAUUUUAFFFFABRRRQAUUUUAFFFFABRRRQAUUUUAFFFFABRRRQAUUUUAFFFFABRRRQAUUUUAeYftBf8AIseGP+xv0D/0529en15h+0F/yLHhj/sb9A/9OdvXp9IroFFIScivjP4tftUeMvBHxQ1ixtNTsooNO1uy0+Pw/NpZZLi3kt45ZJmvwdkbbmK+WfmxhulARjzH2bRXyf4e+PvxE8NJ4R8WeMJtN1Dwn4w0q91az02xtxHPYJHZS30aGTP7z9zGFJOOW74zWl8K/jR49k8UfD9/F+o2F/pHjq3vXtLOzsRDJp8kDoFUvuPmBlkznAxjpSuPlZ9OmvKv2Vv+TePAn/YOX/0Jq7/xH4u0PwdZLea/rOn6HZswQXGpXUdvGWPYM5Az7V5/+ynIsn7O3gNlIZTpy4ZTkH5mpi6Hq9FFFMQUUUUCCiiigAooooAKKKKACiiigAooooAKKKKACiiigAooooAKKKKACiiigAooooAKKKKACiiigAooooAKKKKACiiigAooooAKKKKACiiigAooooAKKKKACiiikM+Dv+Cj2uSNNoGmA4jBdz9eMf1r4cUBmx0r9ePj1+z3o/xt0lUu2a3v4ATDOvY+/HTivzc+MX7Ovin4T6pLHdWjXFl1S5hBKkflXzWOozVRztofvfCOcYOWChgua010fX0PKGXaxFFDZ3YII56Gl9+1eHufpsbPVCNRRS0jaInSlpO9LQCWonNB4oxRnFBLE61a0vVLvRNQgvrCdrW8gbdHMnVTVbqKT+GqjJxd0YVKcasXGSumdtN8dPiDNw3iy/8A+AlR/Sqj/GDx3J18V6l/39x/SuUIo212/Xa38zPnpZBgJf8ALpfcdFJ8VPGznJ8Vap+FwwqL/hZXjNlIHinVcZz/AMfTj+tYW3FJtzT+uV/5mZvh/BdKa+42/wDhY3jHofE+q/hdP/jR/wALE8X9R4n1b/wLf/GsTbS7aPrlb+ZjXD+C/wCfa+42j8RPGHfxNqx/7e3/AMaiuvHPifULaS2uvEGpXFvKu14pbp2VgexGay8e9JtpPF1mrcxcciwkJKUYIRQafSUVxNn0kIcqsLRRSGpNRaKKSgBaKSl/iqhC/dwetOz8vyn6g004p7Z2KXH0IpkyP0//AGC+fgrGf+nl/wCdfSVfNn7BTZ+Csf8A18v/ADFfSdfa4X+DH0P5Tz7/AJGdf/EwooorrPACiiigAooooAKKKKACiiigAooooAKKKKACiiigAooooAKKKKACiiigAooooAKKKKACiiigAooooAKKKKACiiigAooooAKKKKACiiigAooooAKKKKACiiigDzD9oL/kWPDH/Y36B/6c7evT68w/aC/5Fjwx/wBjfoH/AKc7evT6RXQQjJ/xr5u8X/si3nimfXNNXxitt4P1rWYdZvLCTSzLfCRIkiZEujKAqkJkfuyVz3HFfSVGKATaPnjw3+ynd215oVn4j8ZNr/hPw/Y3enaPpMdiLeWGGeCS3xLMJG8wrBIyZVUyQpwMEG/8N/2bdR8H6/4Wu9b8WQ+INL8KQXUOjWUWmfZnj891Znlk81vMZdihcKoHPXNe8UmKA5mZuueGtH8UWQtNZ0qx1e0Vt4gv7ZJkDeu1gRmvO/2VFCfs7+AwoCj+zl4A/wBpq9Wryr9lb/k3jwJ/2Dl/9CagOh6tRRRTEFFFFAgooooAKKKKACiiigAooooAKKKKACiiigAooooAKKKKACiiigAooooAKKKKACiiigAooooAKKKKACiiigAooooAKKKKACiiigAooooAKKKKACiiigAooooAbj5unFYnirwZpPjLT5LPVLVLiJ1K/MORmt2ipavoy4zlTkpxeqPzm/aR/YzuPCP2nWvDUck9lku8OPujJzivkm6t5rGV7eZCjqeVYYr9ybq1ivIXhmQPG42lT6V8i/tK/sdQ+LDLrHhqCOK9xueFeN/P868DF4DTmpn6/wAO8YOLjhswfpL/ADPzp7UVseJvCuqeENUmsNTtHtZo22kMuKyOfSvAkmtGfs1OrCpFTg7phRSc5x+dLUHQtdxKOR70tFAmhKKPpRQZhS0Ck96Cg5o60feooJCilpKChaKSinqIKKKWkUJR3oooAWikpaACkpaKpCYn0qTG1flP4Go8/NUsn3V3jB7EUzOVj9PP2B2z8FF/6+Xr6Vr5o/YF/wCSKj/r7evpevtcL/Bj6H8q5/8A8jOv/iYUUUV1ngBRRRQAUUUUAFFFFABRRRSAKKKKYBRRRSAKKKKYBRRRQAUUUUAFFFFIAooooAKKKKYBRRRQAUUUUAFFFFABRRRQAUUUUAFFFFABRRRQAUUUUAFFFFABRRRQB5h+0F/yLHhj/sb9A/8ATnb16fXmH7QX/IseGP8Asb9A/wDTnb16fSK6BRRRTJCiiigBDXlX7K3/ACbx4E/7By/+hNXqpryr9lb/AJN48Cf9g5f/AEJqRXQ9WooopiCiiigQUUUUAFFFFABRRRQAUUUUAFFFFABRRRQAUUUUAFFFFABRRRQAUUUUAFFFFABRRRQAUUUUAFFFFABRRRQAUUUUAFFFFABRRRQAUUUUAFFFFABRRRQAUUUUAFFFFACH3oKhgRjOaWikB4n8dP2Z/D/xZ0m5YQLaamRlJ41A5HTPFfmt8WPgzrnwp1p7W/hJi3HZMAdrY/Cv2VrjviN8MdE+I2jy2WqWMM5YHazLyD65ry8Vgo1leOjPu8h4oxGVSVKq3Kn+Xofi20m488mkr6H/AGgf2Uda+Gd9dX2n20l1pG4uGjBbaM//AF6+eWVkJVhhhxivmKlKVJ2mj+gMDmFDH0lWoSumJS0YPXtRWJ6aYh70nTjtTjik4qQkAzS0i0Uyb6WDvS/pSUGgQtFNGadjFACUdKRqMmgYtGaKMUCCiiigAoopaZQUUUUxChdw4H1px6AK271z2pu47SoPB9qWT+HcNp9fWqRDP07/AGBT/wAWW/7en/lX0xXzL+wH/wAkZ/7en/lX01X2mF/gRP5Wz/8A5Glf/EwooorrPnwooooAKKKKACkpao63q1voWj32pXciw2lnA9xNIxwFRFLMT7YFJLmdkMth/wCdOXOOa/Of4X/Fr4g6f4+8A/EDxL4n1e58L+KtfvLJtMe9maziUssf3CxUKrTttXbwIOPb9E57mOzt5J55FghjUu8khwqqBkkk9ABmu3FYSWFaTd79iU1ImpD7da4y4+M3gOz0NNYk8ZaENLeVoEvP7RiMTyAAlFYNywBB2jnketbPhfxlofjbTft/h/V7HWbINsaexnWVVbAO0lScHBHB5GelcrpzUbtOwzVa6iWfyfMTzevl7hu/LrUobivjzx5n/h4l4GB5H9mdP+3e6r6x8QeItL8K6ZLqOsajaaTp8RUPdXsywxIScAFmIAySAK3rYd01BrXmVxJ6s06Kq6fqVtqun299ZXMV3Z3EazQ3EDh0kRhlWVhwQQRyPWuQ1T44fD7Q9UbTNQ8a6DaX6O0b282oRK0bDqrjPyke9YRhKWkU2M7miq1hqFtqljBeWVxFd2k6CSKeBw6SIRlWVhwQR3rm7f4teCrzWl0aDxbok2rtM1uLGPUIjOZAcFAgbO4EEYxnikoyd7LYDraK4q4+NHgSz15tEuPGOhwauknkvZyX8SyLJu27CC3D7uNp59q7QNkUSjKNrrcBaRiRS1Dd/LazMDhghwR9DSWoEm4U6vz0/Z7+G/xU+Pngq98Q2/xn8R6MlrfvYfZ5L66lLFY45N+4TDg+ZjGO3XtXqnwH+J3xA8C/Hy7+EHj/AFgeJvMtzLYakFLOpWPzQS5AYqyBgd+SGAwcdfTqYDlUlGabjutSea/Q+t6KRc96WvLWxQUUUUwCiiigAooooAKKKKACiiigAooooAKKKKACiiigAooooAKKKKAPMP2gv+RY8Mf9jfoH/pzt69PrzD9oL/kWPDH/AGN+gf8Apzt69PpFdAooopkhRRRQAhryr9lb/k3jwJ/2Dl/9CavVTXlX7K3/ACbx4E/7By/+hNSK6Hq1FFFMQUUUUCCiiigAooooAKKKKACiiigAooooAKKKKACiiigAooooAKKKKACiiigAooooAKKKKACiiigAooooAKKKKACiiigAooooAKKKKACiiigAooooAKKKKACiiigAooooAKKKKAEailopAZ+s6LZ67Yy2l3CskMilWBHY18HftMfsYzaX52u+GAZIclpLcLnHXkYr9Aajnt47qNo5UV0YYIYVzV8PCvG0ke5lWb4nKaqqUJadV0Z+G17Z3Ok3ctvcRNFKh2sjDmq3Hav0x/aJ/Y80fx9Dc6toluLTVdpbbHhQ5+lfnh428A6z4C1aWx1Wzlt5EYqPMUgH6GvlMRhZ0HZ6o/oXJeIMNm1P3XafVHPCkIzRu/Kj+VcHmfWuSYg9KdRt96SmFrBR1o5ox60EidOnWj+VLikoEL160jUv0o60BYQGjNG2lxSuOwUtJ+NHPrTEFI1GTu6cUv1oHuItLR9KO+Kq4rj1IXkMQ3anSEnadwYnqPSmLwD39qXjy+hVv0p9CWfpx+wD/wAkYb/r7evpuvmP9gE/8WZYf9Pb19OV9phP4ET+Vs//AORpX/xMKKKK7D58KKKKACiiigArwX9tvxsfBv7P+tpGSLjWHj0uIj0kJaQH2MaSD8RXvJ6ivj79q+z/AOFu/tBfDD4YlLltNVmvtRMRIVkYksOn3ljhk57eZXdgYRliIuey1fyFLbQ534yaP4Ut/wBjPw7oGn+JdGOv+G0tNQNlZ6hFLLJcMcXCjaxJ5nkbgfw19KeHfG0fxH/Z1j8RpNHPJf6BJJO0f3ROIWWVf+AyBx+Fed3n7Anwqe1mSC11KKcowjka/ZgrEcHB68/4VyP7Ieu30fwG+IfgrVI2i1Dw095D5JXBVJI3OPf96s3516NR0a1HmpybcZX1XRkK6epxP7EPwD8JfFLwHq+teLbJ9bjtdTktLWxmmdYISYYWeQBSMswKAk54QVvfAHQYPhT+2x428GeHnkt/DzWJf7G8hYD5IZVGTydpkdQSScE5Jya63/gnPC8PwZ10OjIf7fl4ZSP+Xe355/GsjwVDJ/w8S8ZyFGEf9nYDY4/49rbvXTVrSnWxMJS93l0XToJKyRkfGbxZpHgf9vLwjreuXsem6VZ6WpmuJASqBoblRnGT1YdB3qn+0l8arL9py+8O/C74bG41g3V+s95qAieKIBQwAwwBKLlnZiMDYuM9tP4v+FbDxh+3p4R0zWdNj1LSbnSwJ7e4TdFJiG5YA+uCAfyqL9qL4Of8KJ17wt8V/hppUOlx6TOsV/ZWcZ8sZOFkKgfdcM0Tn/aT1JrSk6F6F/j5dO1+nmJ31Z69+0nrk3wT/ZfurTQrt7W4trS10WzuF4dVOyMkHs3lq/I5B5HSvB/hZ4f/AGY9O+G+m23ivV9P1XxFdWyS6jc3DXIkjlcAlF2jACk7cjrtya+hPiRpcH7U37Ndz/wj0qxTarbR3doJhzHcROGMLnsdyNGT2yTyOvzV8PPjF8N/hvoMPhj4r/Bu1s/EmlqLd7tfD9rIblV4DvvCneRj5gW3H5sjNcuG5nh5RjfnUtbOz/4YqW56N+wf4g8nVviP4O0/V31vwrpN6k2kXL9fLd5VLAnpuCRtjgA7iOprjP2tvh9pnw0+MXwz1bwRpcOn+INY1Wa6lk3ySLcXXnwFCwLdCztkLj7x6dR9Hfs6+MPhz460HVta8A+FrfwzDHcC1ulXTILOWXaiuGIiJ3L85Ayeobj1+S/2hv2kvDvxS+Inw21zStK1uC08M35ubxby2RXdPOhfEYV2DHETdSBnHNaYZ1KmOk1FrTVfLqD0jY94+KX7DvhPWvhj/ZPg3T7XT/FMDRPBq+oXEha4IYeaZ3VWzuUseFxuxjaK+gfAOk6hoPgfw9pmrXCXeq2Wn29td3Ebs6yzJGquwZgCQWBOSATXK/Bf46aJ8ctJ1G/0Ox1SyisZ1glTU4EjZmK5GArsMY969HFeHXrV5L2VZ3s+pdl0FqG8/wCPOf8A3G/kamqC9z9lmA5+Q/yNcsd0M/On9lbS/jle/D3UX+GWraVp+gjVJFnS+SJnNz5MO4jdGxxs8vvjg8V6v8I721+FXx4VPilpWqRfEXxNEsFp4kvr2K6s7jJCmOLy0QRZIRACCR8q/KG+bzb9k79qLw58Cfh5qOg69ouv3d5c6rJfJJp1pG8YjaGFMEvIh3Zjbt3Fa+s+LNf/AGyPjj4Im0HwxfaR4W8NXYnk1C7ByEMiO7OwG1WIiVVQEnOTnGcfXVIznOoqkFGm18S0b+fUxXQ+916UtIvSlr5A2CiiimAUUUUAFFFFABRRRQAUUUUAFFFFABRRRQAUUUUAFFFFABRRRQB5h+0F/wAix4Y/7G/QP/Tnb16fXmH7QX/IseGP+xv0D/0529en0iugUUUUyQooooAQ15V+yt/ybx4E/wCwcv8A6E1eqmvKv2Vv+TePAn/YOX/0JqRXQ9WooopiCiiigQUUUUAFFFFABRRRQAUUUUAFFFFABRRRQAUUUUAFFFFABRRRQAUUUUAFFFFABRRRQAUUUUAFFFFABRRRQAUUUUAFFFFABRRRQAUUUUAFFFFABRRRQAUUUUAFFFFABRRRQAUUUUAFFFFACYFeW/Gj4D6J8WtDlt7mFY7vrHMF5Br1Ois5wjUVpI6cPiKuFqKrRlaSPx/+N37P+vfCHXJormAy2DHMVwgO3Hv+VeVB+MEV+1njz4d6L8QNJksdWs47hWUgFhyPxr82/wBo79lfUfhXfTX+nRSXGkNISGVS2we9fM4vBOk+aGx+8cN8WQx1qGJfLU/B/wDBPnheeKVo+lHlsHKkYamtuU4PUV45+nwldajvL9aTaaBmjmlYvmiGw80uw7fakyaTJp2FeIoo2nrSZNG4+tIV4i7c9qUL144pNxHIo3HbyaVi00GKApo3fNnPNL81FmLQTaTS+WaOeKXJ6Zpk+6I0ZWk2HjmlLHP6dadtPY1RL5WNK7QOKdztOfmApMnPJyO4qRQsh5O1vSgxk9T9K/8Agn1MH+DsyDnbeN/IV9R18f8A/BOvUPM8Caxalv8AV3KnH1U/4V9gV9pg3+4ify5xJBwzaun3Ciiiu0+ZCiiigAooooA8C/bA+LHjH4T+C9IvfB1r513dXvkzSG3MwVNjNjA5GSBz+HetT4PftCaDr3w70e+8aeJ9A0PxNIjG8srrUIbeSNtxxmNnDLxjgivZbi3iuo/LmiSaPrtkUMPyNfij+2wqp+1N8Q1UAAXyAAD/AKYx10SrQ9iqahrfcpK5+vv/AAu34dY/5H7wx/4Obb/4uk/4XZ8Of+h98Mf+Dm2/+Lr8FaK5B6XP3q/4XZ8OsY/4T3wx/wCDm2/+Lo/4XZ8OR08e+GP/AAc23/xdfgrRRqFkfvU3xs+HLdfHvhf/AMHNt/8AF0H42fDk/wDM/eF//Bzbf/F1+CtFGoWR+9Q+Nnw5UYHj7wx/4Obb/wCLo/4XZ8Of+h98L/8Ag4tv/i6/BWijULI/eofGz4cjp498L/8Ag4tv/i6P+F2fDn/offDH/g5tv/i6/BWigLI/esfGz4cj/mffDH/g5tv/AIuj/hd3w6/6H7wx/wCDm2/+Lr8FKKNQsj96/wDhd3w6/wCh+8Mf+Dm2/wDi6D8bPhyevj3wwf8AuM23/wAXX4KUUAfvT/wur4c9B498Lj/uMW3/AMXS/wDC7PhznP8AwnvhjP8A2Gbb/wCLr8FaKNRWR++em/FrwNrF9BY6f4z8P315O2yG2ttVgkkkY9FVQ5JPsK62vw9/ZDH/ABk18N/+wzB/M1+4VNDa0uFFFFUQFFFFABRRRQAUUUUAFFFFABRRRQAUUUUAFFFFABRRRQAUUUUAeYftBf8AIseGP+xv0D/0529en15h+0F/yLHhj/sb9A/9OdvXp9IroFFFFMkKKKKAENeVfsrf8m8eBP8AsHL/AOhNXqpryr9lb/k3jwJ/2Dl/9CakV0PVqKKKYgooooEFFFFABRRRQAUUUUAFFFFABRRRQAUUUUAFFFFABRRRQAUUUUAFFFFABRRRQAUUUUAFFFFABRRRQAUUUUAFFFFABRRRQAUUUUAFFFFABRRRQAUUUUAFFFFABRRRQAUUUUAFFFFABRRRQAUUUUAFZniDw/ZeJNNmsb+BJ4JV2lXUMK06KTSasyoycGpR0aPknxd+wHoGtatLd2N99jjkbd5Yi4H61W03/gnroMTA3Wpeb6/uyP619f4orieCoN35T6aPE2bRioKs7I+WP+GA/B+P+Ph8/wC7/wDXoP7Afg48ee//AHzX1PRR9Sofymf+sea/8/2fKx/YB8H9p3/75/8Ar0w/8E/fCB/5eXH/AAD/AOvX1ZRR9Sofylf6yZr/AM/2fKLf8E+/CXOLtx/wD/69ZN9/wTw0ORj5Gq7B7xZ/rX2JRS+o0H9k0jxPm8f+X7Pipv8AgnRYZ+XWVH/bL/69N/4dzWWP+Q2M/wDXL/69fa9FT/Z+H/lNP9bM4/5/P8D4o/4dzWWP+Q2P+/f/ANek/wCHc9p/0Gh/36/+vX2xRR9Qofylf62Zx/z+/I+Jm/4Jz2vbW1H/AGz/APr1G3/BOaDtrgz/ANc//r19u0UfUMP/ACh/rZm//P78j4h/4dzRH/mOLn/rl/8AXpjf8E5U/h11Qf8Arl/9evuGil/Z+H/lH/rbm/8Az9/BHwfef8E5bxVY2+twk9sxn/GsOb/gnf4lVvk1S0PPBORX6GUUv7PodjaPGObx/wCXl/kj5+/ZZ/Z71H4H2OopqF5HcvdMpxHnAwD/AI19A0mKXFdtOlGlFQjsfLYzGVcfWliKz95hRRRWxxBRRRQIKKKKACvxO/ba/wCTqPiJ/wBf6f8AomOv2xr8Tv22v+TqPiJ/1/p/6JjqWXE8Qo+tFfox/wAEx/hr4R8bfDPxfc+IvC2i6/cw6ukcU2qafDcui+Sp2gupIGSTj3pAfnPR/Lp/n/P86/eP/hQHwv8A+iceEv8AwR2v/wAbr5K/4KX/AAw8G+CfgToN94e8JaHoN9J4kt4XudM02G3kaM2t0xQsiglcqpx0yB6UxXPzRo9fzor1r9k3R7DX/wBo7wBp2qWVvqWn3Gpqk1rdxLLFIu1uGRgQR9RSGeS/Wj/P+f8APev3j/4UB8L/APonHhH/AMEVr/8AG6P+FAfDDn/i3HhL/wAEdr/8bphdH4OUVY1JVj1C6VVCqJXAUDAHzGq9IAooooAKKKKACiiigD179kT/AJOa+G//AGGYP51+4Vfh7+yJ/wAnNfDf/sMwfzr9wqaHLYKKKKozCiiigAooooAKKKKACiiigAooooAKKKKACiiigAooooAKKKKAPMP2gv8AkWPDH/Y36B/6c7evT68w/aC/5Fjwx/2N+gf+nO3r0+kV0CiiimSFFFFACGvKv2Vv+TePAn/YOX/0Jq9VNeVfsrf8m8eBP+wcv/oTUiuh6tRRRTEFFFFAgooooAKKKKACiiigAooooAKKKKACiiigAooooAKKKKACiiigAooooAKKKKACiiigAooooAKKKKACiiigAooooAKKKKACiiigAooooAKKKKACiiigAooooAKKKKACiiigAooooAKKKKACiiigAooooAKKKKACiiigAooooAKKKKACiiigAooooAKKKKACiiigAooooAKKKKACiiigAooooAKKKKACvxO/ba/5Oo+In/X+n/omOv2xr8Tv22v+TqPiJ/1/p/6JjqWXE8Qr9O/+CT//ACSrxr/2Gk/9EJX5iV6/8Ff2qviB8AdG1DSvCF7Z2tnfXAuZlurRJiX2hcgt7AcUgP3Br4z/AOCq3/JvPh7/ALGm3/8ASS7r5P8A+Hk3xu/6C+lf+CuKvUP2efiVrn7e3jS9+H/xcmi1Pw3punya7bw6bELOQXUckUCsXTkrsuZRt9SD2pk2Pgv0+ley/sb/APJ0Hw4/7Cqf+gtX6L/8O2fggf8AmE6r/wCDSSt7wH+wf8Jvhv4w0rxPomm6jDqumTCe2eXUJJFVwMZKng9aVhn0NRRRVC6n89Oqf8hO7/67P/6Eaq1a1T/kJ3f/AF2f/wBCNVfQVJQUV+kf7Kf7Dvwq+LXwB8J+LPEOnahPrGoxztcSQag8aErcSoMKOB8qCvWf+Ha/wQ/6BOq/+DSSgD8g6K+mf28/gR4T+AXxJ0DRfCFtcW1jeaSLuVbm4aZjIZpEzk9BhBxXzNQAUUUUAevfsif8nNfDf/sMwfzr9wq/D39kT/k5r4b/APYZg/nX7hU0OWwUUUVRmFFFFABRRRQAUUUUAFFFFABRRRQAUUUUAFFFFABRRRQAUUUUAeYftBf8ix4Y/wCxv0D/ANOdvXp9eYftBf8AIseGP+xv0D/0529en0iuhg6b498Nazrd7o2n+ItKv9YsQxutPtr2KS4gCsFYvGrFlwxAOQOSKboPxA8MeKLi8t9G8R6Tq1xZ83MVjfRTNByfvhWJXoevoa+bPiBDomg/Hbx42jGystQuvh9q7yfZ3UPJdGSBucHJfOT+deX3zaPBp/gA/DkhdVk8Cau2r/ZDhmfYu0y46t532nGecY7YpFKNz7h0H4ieFvFP2z+xfE2j6uLME3H2C/in8nHUvtY7fxxUvhvx54a8Ztcr4f8AEOla61qQJxpt7FcGEnON2xjt6Hr6GvgnxI0NvptmfAXkor/B5pNWNpgHZ5PzO+P+WudnJ56V7H8LRoEP7SfhtPBn2ddMfwcH1JdPx5BcP+5LAZ+fPndeaBuKR9X845ryr9lb/k3nwL/2Dl/9Cau38X2/ia401B4X1HStOvg+Wk1ixlu4inOQFjmiIbpzuI68enDfspbx+zr4D8wgv/Zy5KjA+83QUEdD1iiiiqEFFFFAgooooAKKKKACiiigAooooAKKKKACiiigAooooAKKKKACiiigAooooAKKKKACiiigAooooAKKKKACiiigAooooAKKKKACiiigAooooAKKKKACiiigAooooAKKKKACiiigAooooAKKKKACiiigAooooAKKKKACiiigAooooAKKKKACiiigAooooAKKKKACiiigAooooAKKKKACiiigAooooAKKKKACvxO/ba/5Oo+In/X+n/omOv2xr8Tv22v+TqPiJ/1/p/6JjqWXE8QooopAFfZn/BKn/k4XxD/2K1x/6V2lfGde0fso/tFL+zL8RNR8UPoJ8RLd6VJpv2UXgttu6aGTfu2PnHk4xjndnPHIB+3FFfnp/wAPb4P+iWyf+D8f/I1dl8Hf+ClUXxa+J/hzwevw8fSzrF0Lb7YdZE3lZBOdnkLu6eop3FY+2aKQfnS0yep/PTqn/ITu/wDrs/8A6Eaq+3arWqf8hO7/AOuz/wDoRqr71JZ+0P7BX/JpXw/7/ubr/wBLJ69/r8tPgF/wUah+CPwj8PeCW8APrJ0lJV+3DWBB5u+Z5fueQ2Mb8fePTNeg/wDD2+D/AKJbJ/4Px/8AI1MTOE/4Kuf8lo8J/wDYvr/6UzV8SV+hl18OZf8AgpxIPH1vfJ8Ol0Ef2EdPkiOpGYj9/wCbvBi2/wCu242n7uc84EP/AA6RvOf+Lnwf+CNv/kikM/PmivqX9qP9hi4/Zo+Htj4ol8ZR+IFutTj00Wqaabcrvilk37jK2ceVjGO/tXy1+GKAPXv2RP8Ak5r4b/8AYZg/nX7hV+Hv7In/ACc18N/+wzB/Ov3CpoctgoooqjMKKKKACiiigAooooAKKKKACiiigAooooAKKKKACiiigAooooA8w/aC/wCRY8Mf9jfoH/pzt69PrzD9oL/kWPDH/Y36B/6c7evT6RXQ5CT4O+AptebW5PBHhx9aaUztqLaTAbgyE5LmTZu3EknOc81f0D4e+FfCl1e3OieGtH0e4vf+PqXT7CKBp+p+cooLck9c9TXQUUC1Od0H4c+E/Cv2z+xfDGjaP9sBFz9gsIoPPB6h9qjcD71J4Z8A+GfBbXTeHvDuk6C10Q1wdMsorfziM4L7FG7GTjPqa3qKAEwK8q/ZV/5N48Cf9g5f/Qmr1U15V+yt/wAm8eBP+wcv/oTUD6Hq1FFFMQUUUUCCiiigAooooAKKKKACiiigAooooAKKKKACiiigAooooAKKKKACiiigAooooAKKKKACiiigAooooAKKKKACiiigAooooAKKKKACiiigAooooAKKKKACiiigAooooAKKKKACiiigAooooAKKKKACiiigAooooAKKKKACiiigAooooAKKKKACiiigAooooAKKKKACiiigAooooAKKKKACiiigAooooAK/E79tr/k6j4if9f6f+iY6/bGvxO/ba/5Oo+In/X+n/omOpZcTxCiiikAUUV3Xwd+Cvir47eJrnQPCFnDe6nb2bX0kc1wkIEKuiE7nIB+aVOPegDha9l/Y3/5Og+HH/YVT/wBBau2H/BOP45n/AJl2w/8ABrb/APxVdR8MP2UfiR+zb8QdC+JnjnSLex8J+Grlb7Ubi2vYriRIhlcrGrbmOWHAFIqx+rtFfLX/AA8o+CP/AEFtW/8ABXLSf8PJ/gl/0FtVH10uSquRyn5H6p/yE7v/AK7P/wChGqtfT03/AATv+N2pTPdweH7FoJ2MsbNqkAJVjkHBbjg0z/h3H8c/+hdsP/Brb/8AxdIqx8yUV0XxC8A6z8L/ABlqfhfxDAlrrOnOsdxDHIsiqxRXGGUkHhh3rnaBH6i/8Eo/+SL+Lf8AsYG/9Joa+26/MH9g39rD4ffAH4b6/o3i69vba+vNWN3CttZvMDGYY0zkd8oeK+mf+HlHwR/6Curf+CuSncLHN/8ABVL/AJN40If9TPb/APpLdV+VFfd/7df7XXw7+Pfwh0vw94Rvb651K31uG+kW4snhURLBOhO48dZFr4QpAevfsif8nNfDf/sMwfzr9wq/D39kT/k5r4b/APYZg/nX7hU0OWwUUUVRmFFFFABRRRQAUUUUAFFFFABRRRQAUUUUAFFFFABRRRQAUUUUAeYftBf8ix4Y/wCxv0D/ANOdvXp9eYftBf8AIseGP+xv0D/0529en0iugUUUUyQooooAQ15V+yt/ybx4E/7By/8AoTV6qa8q/ZW/5N48Cf8AYOX/ANCakV0PVqKKKYgooooEFFFFABRRRQAUUUUAFFFFABRRRQAUUUUAFFFFABRRRQAUUUUAFFFFABRRRQAUUUUAFFFFABRRRQAUUUUAFFFFABRRRQAUUUUAFFFFABRRRQAUUUUAFFFFABRRRQAUUUUAFFFFABRRRQAUUUUAFFFFABRRRQAUUUUAFFFFABRRRQAUUUUAFFFFABRRRQAUUUUAFFFFABRRRQAUUUUAFFFFABRRRQAV+J37bX/J1HxE/wCv9P8A0THX7Y1+J37bX/J1HxE/6/0/9Ex1LLieIUUVuaD4F8S+K7eWfRPD2q6xBE2x5bCylnRGxnDFFODjt70gMOvsz/glT/ycN4h/7Fa4/wDSu0r5k/4Uz8QP+hG8S/8AgouP/iK+uf8AgmT4B8UeE/j1r13rfhvV9HtH8NXESz6hYywRs5urUhQzqMnAJx7GmgP01FeKftqf8mt/EQ/9Q4f+jUr2wV45+2Dpd7rX7NPj+y060nv72bT9sVtbRmSSQ+YhwqjknANNiW5+IXTjtRXY/wDCmfiB/wBCL4l/8E9wP/ZKP+FNfEDp/wAIL4l5/wCoRcf/ABH+fyqRn7w6F/yBNP8A+veP/wBBFXvevP8AR/jR8PodIsY5fHXhqORII1ZW1e3BBCjII39c1bb42/Dzr/wnvhjA/wCozbf/ABdMXU/Iv9uf/k674hf9fUH/AKTRV4RXtf7aOsWGvftPePL/AEy9t9RsZrmExXVpKssTgW8QJVlJB5BHB7V4pSGFFFFAB+FFFFAHr37In/JzXw3/AOwzB/Ov3Cr8Pf2RP+Tmvhv/ANhmD+dfuFTQ5bBRRRVGYUUUUAFFFFABRRRQAUUUUAFFFFABRRRQAUUUUAFFFFABRRRQB5h+0F/yLHhj/sb9A/8ATnb16fXmH7QX/IseGP8Asb9A/wDTnb16fSK6BRRRTJCiiigBDXlX7K3/ACbx4E/7By/+hNXqpryr9lb/AJN48Cf9g5f/AEJqRXQ9WooopiCiiigQUUUUAFFFFABRRRQAUUUUAFFFFABRRRQAUUUUAFFFFABRRRQAUUUUAFFFFABRRRQAUUUUAFFFFABRRRQAUUUUAFFFFABRRRQAUUUUAFFFFABRRRQAUUUUAFFFFABRRRQAUUUUAFFFFABRRRQAUUUUAFFFFABRRRQAUUUUAFFFFABRRRQAUUUUAFFFFABRRRQAUUUUAFFFFABRRRQAUUUUAFFFFABX4nfttf8AJ1HxE/6/0/8ARMdftjX4nfttf8nUfET/AK/0/wDRMdSy4niFfp3/AMEn/wDklXjQ/wDUaT/0QlfmJX6d/wDBKE/8Wp8af9hpf/RCUgPuXpR1pAaWqJCiikLfhQAvSj1o570jNjAoBH89Wqf8hK7/AOuz/wDoRqrVrVP+Qnd/9dn/APQjVX/PSpKCij/PSj/PSgAoo/z0o/z0oAKKP89KKAPXv2RP+Tmvhv8A9hmD+dfuFX4e/sif8nNfDf8A7DMH86/cKmhy2CiiiqMwooooAKKKKACiiigAooooAKKKKACiiigAooooAKKKKACiiigDzD9oL/kWPDH/AGN+gf8Apzt69PrzD9oL/kWPDH/Y36B/6c7evT6RXQKKKKZIUUUUAIa8q/ZW/wCTePAn/YOX/wBCavVTXlX7K3/JvHgT/sHL/wChNSK6Hq1FFFMQUUUUCCiiigAooooAKKKKACiiigAooooAKKKKACiiigAooooAKKKKACiiigAooooAKKKKACiiigAooooAKKKKACiiigAooooAKKKKACiiigAooooAKKKKACiiigAooooAKKKKACiiigAooooAKKKKACiiigAooooAKKKKACiiigAooooAKKKKACiiigAooooAKKKKACiiigAooooAKKKKACiiigAooooAK/E79tr/AJOo+In/AF/p/wCiY6/bGvxO/ba/5Oo+In/X+n/omOpZcTxCun8J/FLxn4DtJrXwz4u17w7bTv5ksOk6lNapI2MbmEbAE4AGT6CuYopAeif8NHfFn/oqHjP/AMKC7/8AjlH/AA0d8Wf+ioeM/wDwoLv/AOOV53RQB6J/w0d8Wf8AoqHjP/woLv8A+OV6x+yh8cviR4j/AGjPAOm6t8QfFWqadc6ksc9nea1czQyrtb5WRnIYexFfMdey/sb/APJ0Hw4/7Cqf+gtQB+3fpRRRVEnnjfs6fCiRmZvhh4NZmOSx8P2hJPqf3dJ/wzj8Jv8Aol/gz/wn7T/43XolFAHnf/DOPwm/6Jf4M/8ACftP/jdH/DOPwm/6Jf4M/wDCftP/AI3XolFAjzv/AIZx+E3/AES/wZ/4T9p/8bo/4Zx+E3/RL/Bn/hP2n/xuvRKKAPgv/gpR8JfA/gX4E6LqHhrwZ4f8PX8niKCB7rStLgtpWjNtckoWjQEqSqnHTKg9q/NOv1X/AOCqX/JvOg/9jPbf+kt1X5UUiz179kT/AJOa+G//AGGYP51+4Vfh7+yJ/wAnNfDf/sMwfzr9wqEOWwUUUVRmFFFFABRRRQAUUUUAFFFFABRRRQAUUUUAFFFFABRRRQAUUUUAeYftBf8AIseGP+xv0D/0529en15h+0F/yLHhj/sb9A/9OdvXp9IroFFFFMkKKKKAENeVfsrf8m8eBP8AsHL/AOhNXqpryr9lb/k3jwJ/2Dl/9CakV0PVqKKKYgooooEFFFFABRRRQAUUUUAFFFFABRRRQAUUUUAFFFFABRRRQAUUUUAFFFFABRRRQAUUUUAFFFFABRRRQAUUUUAFFFFABRRRQAUUUUAFFFFABRRRQAUUUUAFFFFABRRRQAUUUUAFFFFABRRRQAUUUUAFFFFABRRRQAUUUUAFFFFABRRRQAUUUUAFFFFABRRRQAUUUUAFFFFABRRRQAUUUUAFFFFABRRRQAV+J37bX/J1HxE/6/0/9Ex1+2Nfid+21/ydR8RP+v8AT/0THUsuJ4hRRRSAKKKKACt3wL421X4c+L9K8S6HKkGr6ZMJ7aSSMOquBjJUjB6nrWFRQB9Qf8PIvjj213Tcf9gqD/Cj/h5D8cf+g7pv/gqg/wAK+X6KB3PqD/h5D8cf+g7pv/gqg/wo/wCHkPxx/wCg7pv/AIKoP8K+X6KAv5H1B/w8h+OP/Qd03/wVQf4Uf8PIfjj/ANB3Tf8AwVQf4V8v0UBfyPqD/h5D8cf+g7pv/gqg/wAKP+HkPxx/6Dum/wDgqg/wr5fooC/key/GL9rb4j/HfwvbeH/F+pWl5plveJfRpb2UcLCVUdAdyjpiRuK8aoooEevfsif8nNfDf/sMwfzr9wq/D39kT/k5r4b/APYZg/nX7hU0OWwUUUVRmFFFFABRRRQAUUUUAFFFFABRRRQAUUUUAFFFFABRRRQAUUUUAeYftBf8ix4Y/wCxv0D/ANOdvXp9eYftBf8AIseGP+xv0D/0529en0iugUUUUxBRRRQIQ15V+yt/ybx4E/7By/8AoTV6qa8q/ZW/5N48Cf8AYOX/ANCakV0PVqKKKYgooooEFFFFABRRRQAUUUUAFFFFABRRRQAUUUUAFFFFABRRRQAUUUUAFFFFABRRRQAUUUUAFFFFABRRRQAUUUUAFFFFABRRRQAUUUUAFFFFABRRRQAUUUUAFFFFABRRRQAUUUUAFFFFABRRRQAUUUUAFFFFABRRRQAUUUUAFFFFABRRRQAUUUUAFFFFABRRRQAUUUUAFFFFABRRRQAUUUUAFFFFABRRRQAhPSvh744/8E3bv4w/FjxH4yj8fwaUmr3CzizbSjKYsIq43+cN33euBX3FRSGfnJ/w6Tvf+in2/wD4JD/8kUf8Ok73/op9v/4JD/8AJFfo3RRYLn5yf8Ok73/op9v/AOCQ/wDyRR/w6Tvf+in2/wD4JD/8kV+jdFFgufnJ/wAOk73/AKKfb/8AgkP/AMkUf8Ok73/op9v/AOCQ/wDyRX6N0UWC5+cn/DpO9/6Kfb/+CQ//ACRR/wAOk73/AKKfb/8AgkP/AMkV+jdFFgufnJ/w6Tvf+in2/wD4JD/8kUf8Ok73/op9v/4JD/8AJFfo3RRYLn5yf8Ok73/op9v/AOCQ/wDyRR/w6Tvf+in2/wD4JD/8kV+jdFFgufnJ/wAOk73/AKKfb/8AgkP/AMkUf8Ok73/op9v/AOCQ/wDyRX6N0UWC5+cn/DpO9/6Kfb/+CQ//ACRR/wAOk73/AKKfb/8AgkP/AMkV+jdFFgufCnwf/wCCad38K/ih4Z8XP8QYNRTR72O7NqukmMy7T93d5xx+Rr7qFLRQFwooopiCiiigAooooAKKKKACiiigAooooAKKKKACiiigAooooAKKKKAPMP2gv+RY8Mf9jfoH/pzt69PrzD9oL/kWPDH/AGN+gf8Apzt69PpFdDxvSfi94wuPi/4i8F3/AIY0+3jt9Ku9T0m4hvneS6WOaOOMSKUATf5gPBOKxh+0Vr/gvxZd6D8Q/D+naXMuhya7BLod692qxIXDpLvjQq2U4wCDnrwcZGuR/Fez/aEv/Fml/DGO+0qHSLrRrW4fX7ZBNmSOSOYp94A+SBs6jf1GK5/wH8L/AIj+NYvHI+Jfg77Fr/iawktH8RDWbeaK1hVWENtBboMxpzljnJZmJ7AIpJdTf0f9rLVNLt7mXxt4cs9F87wo3izTFsLxpzPDt3CB9yLslxwRyvBw1dZ8MPjf4h8QePl8JeMPDlpoOo3umJq+nNp921ykkJZgyyFkXa6/JwMj5+tePRfs8eP/AIo2sieMtDtvDUmkeCG8M6a0N/HOLy7CbVuGCH5EOW+Q8jI5r0L4T+BfH2t/Fmx8Y+ONAtvC6aHog0ixtre9juvtTO37yXKE7BhIwFPfPNA2o20Pdtc8RaV4btRc6xqdnpVszbRNe3CQpu9MsQM151+yoyv+zv4EKncv9nLg/wDAmr0PXvDGj+KbRbXWtJsdXtlbesN/bJOgb1CsCM155+ymqx/s7eA1UBVGnLgAf7TUEdD1eiiiqEFFFFAgooooAKKKKACiiigAooooAKKKKACiiigAooooAKKKKACiiigAooooAKKKKACiiigAooooAKKKKACiiigAooooAKKKKACiiigAooooAKKKKACiiigAooooAKKKKACiiigAooooAKKKKACiiigAooooAKKKKACiiigAooooAKKKKACiiigAooooAKKKKACiiigAooooAKKKKACiiigAooooAKKKKACiiigAooooAKKKKACiiigAooooAKKKKACiiigAooooAKKKKACiiigAooooAKKKKACiiigAooooAKKKKACiiigAooooAKKKKACiiigAooooA8w/aC/5Fjwx/wBjfoH/AKc7evT68w/aC/5Fjwx/2N+gf+nO3r0+kV0E2j0paKKZIgAHTiloooASvKv2Vv8Ak3jwJ/2Dl/8AQmr1U15V+yt/ybx4E/7By/8AoTUiuh6tRRRTEFFFFAgooooAKKKKACiiigAooooAKKKKACiiigAooooAKKKKACiiigAooooAKKKKACiiigAooooAKKKKACiiigAooooAKKKKACiiigAooooAKKKKACiiigAooooAKKKKACiiigAooooAKKKKACiiigAooooAKKKKACiiigAooooAKKKKACiiigAooooAKKKKACiiigAooooAKKKKACiiigAooooAKKKKACiiigAooooAKKKKACiiigAooooAKKKKACiiigAooooAKKKKACiiigAooooAKKKKACiiigAooooAKKKKACiiigAooooAKKKKACiiigAooooA8w/aC/5Fjwx/2N+gf+nO3r0+vMP2gv8AkWPDH/Y36B/6c7evT6RXQKKKKZIUUUUAIa8q/ZW/5N48Cf8AYOX/ANCavVTXlX7K3/JvHgT/ALBy/wDoTUiuh6tRRRTEFFFFAgooooAKKKKACiiigAooooAKKKKACiiigAooooAKKKKACiiigAooooAKKKKACiiigAooooAKKKKACiiigAooooAKKKKACiiigAooooAKKKKACiiigAooooAKKKKACiiigAooooAKKKKACiiigAooooAKKKKACiiigAooooAKKKKACiiigAooooAKKKKACiiigAooooAKKKKACiiigAooooAKKKKACiiigAooooAKKKKACiiigAooooAKKKKACiiigAooooAKKKKACiiigAooooAKKKKACiiigAooooAKKKKACiiigAooooAKKKKACiiigAooooA8w/aC/wCRY8Mf9jfoH/pzt69PrzD9oL/kWPDH/Y36B/6c7evT6RXQKKKKZIUUUUAIa8q/ZW/5N48Cf9g5f/Qmr1U15V+yt/ybx4E/7By/+hNSK6Hq1FFFMQUUUUCCiiigAooooAKKKKACiiigAooooAKKKKACiiigAooooAKKKKACiiigAooooAKKKKACiiigAooooAKKKKACiiigAooooAKKKKACiiigAooooAKKKKACiiigAooooAKKKKACiiigAooooAKKKKACiiigAooooAKKKKACiiigAooooAKKKKACiiigAooooAKKKKACiiigAooooAKKKKACiiigAooooAKKKKACiiigAooooAKKKKACiiigAooooAKKKKACiiigAooooAKKKKACiiigAooooAKKKKACiiigAooooAKKKKACiiigAooooAKKKKACiiigDzD9oL/kWPDH/Y36B/6c7evT68w/aC/5Fjwx/wBjfoH/AKc7evT6RXQKKKKZIUUUUAIa8q/ZW/5N48Cf9g5f/Qmr1U15V+yt/wAm8eBP+wcv/oTUiuh6tRRRTEFFFFAgooooAKKKKACiiigAooooAKKKKACiiigAooooAKKKKACiiigAooooAKKKKACiiigAooooAKKKKACiiigAooooAKKKKACiiigAooooAKKKKACiiigAooooAKKKKACiiigAooooAKKKKACiiigAooooAKKKKACiiigAooooAKKKKACiiigAooooAKKKKACiiigAooooAKKKKACiiigAooooAKKKKACiiigAooooAKKKKACiiigAooooAKKKKACiiigAooooAKKKKACiiigAooooAKKKKACiiigAooooAKKKKACiiigAooooAKKKKACiiigAooooA8w/aC/5Fjwx/wBjfoH/AKc7evT68w/aC/5Fjwx/2N+gf+nO3r0+kV0CiiimSFFFFACGvKv2Vv8Ak3jwJ/2Dl/8AQmr1U15V+yt/ybx4E/7By/8AoTUiuh6tRRRTEFFFFAgooooAKKKKACiiigAooooAKKKKACiiigAooooAKKKKACiiigAooooAKKKKACiiigAooooAKKKKACiiigAooooAKKKKACiiigAooooAKKKKACiiigAooooAKKKKACiiigAooooAKKKKACiiigAooooAKKKKACiiigAooooAKKKKACiiigAooooAKKKKACiiigAooooAKKKKACiiigAooooAKKKKACiiigAooooAKKKKACiiigAooooAKKKKACiiigAooooAKKKKACiiigAooooAKKKKACiiigAooooAKKKKACiiigAooooAKKKKACiiigAooooA8w/aC/5Fjwx/2N+gf+nO3r0+vMP2gv8AkWPDH/Y36B/6c7evT6RXQKK57SPiF4X8QeIL3QdL8S6PqWuWO43em2d/FLc24VgrF4lYsuGIByByatW/i3RbrWb7SItY0+XVrFFlurCO5Rp7dGGUaRM7kBHILAZoFY16K5rw98TPCHi77Z/YXivRNZFkpa6/s/UYZ/IA6l9jHaPripPC/wAQvC3jhrtfDniXR/EDWZC3K6VfxXJhJzgPsY7eh6+hoCzOgNeVfsrf8m8eBP8AsHL/AOhNXqo5zmvKv2Vf+TePAn/YOX/0JqB9D1aiiimIKKKKBBRRRQAUUUUAFFFFABRRRQAUUUUAFFFFABRRRQAUUUUAFFFFABRRRQAUUUUAFFFFABRRRQAUUUUAFFFFABRRRQAUUUUAFFFFABRRRQAUUUUAFFFFABRRRQAUUUUAFFFFABRRRQAUUUUAFFFFABRRRQAUUUUAFFFFABRRRQAUUUUAFFFFABRRRQAUUUUAFFFFABRRRQAUUUUAFFFFABRRRQAUUUUAFFFFABRRRQAUUUUAFFFFABRRRQAUUUUAFFFFABRRRQAUUUUAFFFFABRRRQAUUUUAFFFFABRRRQAUUUUAFFFFABRRRQAUUUUAFFFFABRRRQB5h+0F/wAix4Y/7G/QP/Tnb16fXmH7QX/IseGP+xv0D/0529en0iuh8x61NZ+Cf2nNf1Dw3ptvdaxJ4NvpxZ2xUPd3ZurYqp/2mbr+P4eKeGLjxHoniT4irceH/FFv4y1fwUtzfXmo2qRkXHn3mG4lY+WIxHEpHLGFiQtfab/BT4fSeIm19vA/h1tcac3J1FtLgNwZScmQvtzuJJOc55rpW0HTW1SXUjp9sdRmt1tJLoxL5rwqzMsZbGSgLuQvQFj60WKUj8/PFUMVpp9j/wAIIkUaP8Hi+rfYwAWj8nln29ZM7OTzXs3wzt9Dtf2lPDCeEEt4tNbwaG1JbAAQlt/7ksB/FnzuvP1r6G8O/DDwf4P+2/2H4W0fR/twK3X2Gwih88HqH2qNw9jUnhX4deFfAr3b+HPDelaC94Q1w2m2UduZiMkF9gG7GTjPqfWlYObQPGen+JdS0tY/DGt2OhXwfL3F/pzXqFO6hBLHg++T9K4n9lNXX9nbwIHYM405QSowD8zV6ua+V/2c/id4/wBP+CHg+20z4P6prVhFZBYdQh1vToknXc3zBHmDAf7wB4oJ6H1TRXj3/C2vib/0QvWf/Ch0v/4/R/wtr4m/9EL1n/wodL/+P07hY9horx7/AIW18Tf+iF6z/wCFDpf/AMfo/wCFtfE3/ohes/8AhQ6X/wDH6Lisew0V49/wtr4m/wDRC9Z/8KHS/wD4/R/wtr4m/wDRC9Z/8KHS/wD4/RcLHsNFePf8La+Jv/RC9Z/8KHS//j9H/C2vib/0QvWf/Ch0v/4/RcLHsNFePf8AC2vib/0QvWf/AAodL/8Aj9H/AAtr4m/9EL1n/wAKHS//AI/RcLHsNFePf8La+Jv/AEQvWf8AwodL/wDj9H/C2vib/wBEL1n/AMKHS/8A4/RcLHsNFePf8La+Jv8A0QvWf/Ch0v8A+P0f8La+Jv8A0QvWf/Ch0v8A+P0XCx7DRXj3/C2vib/0QvWf/Ch0v/4/UN58ZPiTY2s1zN8DdaSGFGkdv+Eg0s4UDJP+v9KLhY9norw7w78ePH/irw/pmtaZ8EtZutN1K1ivLWf+3tNTzIpEDo21pgwyrA4IBHcVof8AC2vib/0QvWf/AAodL/8Aj9A7HsNFePf8La+Jv/RC9Z/8KHS//j9H/C2vib/0QvWf/Ch0v/4/RcVj2GivHv8AhbXxN/6IXrP/AIUOl/8Ax+j/AIW18Tf+iF6z/wCFDpf/AMfouFj2GivHv+FtfE3/AKIXrP8A4UOl/wDx+j/hbXxN/wCiF6z/AOFDpf8A8fouFj2GivHv+FtfE3/ohes/+FDpf/x+j/hbXxN/6IXrP/hQ6X/8fouFj2GivHv+FtfE3/ohes/+FDpf/wAfo/4W18Tf+iF6z/4UOl//AB+i4WPYaK8e/wCFtfE3/ohes/8AhQ6X/wDH6P8AhbXxN/6IXrP/AIUOl/8Ax+i4WPYaK8e/4W18Tv8Aohes/wDhQ6X/APH6P+FtfE7/AKIXrP8A4UOl/wDx+gLHsNFeD+Kv2hPHPgvR21XWfgrrNnYrNBbmX+3dNf8AeTTJDEMLMT80kiLnGBnJIAJGv/wtv4m/9EL1n/wodL/+P0BY9horx7/hbXxN/wCiF6z/AOFDpf8A8fo/4W18Tf8Aohes/wDhQ6X/APH6LhY9horx7/hbXxN/6IXrP/hQ6X/8fo/4W18Tf+iF6z/4UOl//H6LhY9horx7/hbXxN/6IXrP/hQ6X/8AH6P+FtfE3/ohes/+FDpf/wAfouFj2GivHv8AhbXxN/6IXrP/AIUOl/8Ax+j/AIW18Tf+iF6z/wCFDpf/AMfouFj2GivHv+FtfE3/AKIXrP8A4UOl/wDx+j/hbXxN/wCiF6z/AOFDpf8A8fouFj2GivHv+FtfE3/ohes/+FDpf/x+j/hbXxN/6IXrP/hQ6X/8fouFj2GivHv+FtfE7/ohes/+FDpf/wAfo/4W18Tv+iF6z/4UOl//AB+i4WPYaK8e/wCFtfE7/ohes/8AhQ6X/wDH6wvFf7R/jXwUulNrHwY1izXVNQh0q0/4nmnP5lzMcRp8sxxkjqcKO5FA7Hv1FePf8La+Jv8A0QvWf/Ch0v8A+P0f8La+J3/RC9Z/8KHS/wD4/QKx7DRXj3/C2vib/wBEL1n/AMKHS/8A4/R/wtr4m/8ARC9Z/wDCh0v/AOP0XCx7DRXj3/C2vib/ANEL1n/wodL/APj9H/C2vib/ANEL1n/wodL/APj9Fwsew0V49/wtr4m/9EL1n/wodL/+P0f8La+Jv/RC9Z/8KHS//j9Fwsew0V49/wALa+Jv/RC9Z/8ACh0v/wCP0f8AC2vib/0QvWf/AAodL/8Aj9Fwsew0V49/wtr4m/8ARC9Z/wDCh0v/AOP0f8La+Jv/AEQvWf8AwodL/wDj9Fwsew0V49/wtr4m/wDRC9Z/8KHS/wD4/R/wtr4m/wDRC9Z/8KHS/wD4/RcLHsNFePf8La+Jv/RC9Z/8KHS//j9H/C2vid/0QvWf/Ch0v/4/RcLHsNFeD69+0J468M3Oj2+o/BXWbebV70afZL/bumt5twY5JQmVmO35IpDlsD5euSAdb/hbfxN/6IXrP4+IdL/+P0BY9iorx7/hbXxN/wCiF6z/AOFDpf8A8fo/4W18Tf8Aohes/wDhQ6X/APH6LhY9horx7/hbXxN/6IXrP/hQ6X/8fo/4W18Tf+iF6z/4UOl//H6LhY9horx7/hbXxN/6IXrP/hQ6X/8AH6P+FtfE3/ohes/+FDpf/wAfouFj2GivHv8AhbXxN/6IXrP/AIUOl/8Ax+j/AIW18Tf+iF6z/wCFDpf/AMfouFj2GivHv+FtfE3/AKIXrP8A4UOl/wDx+j/hbXxN/wCiF6z/AOFDpf8A8fouFj2GivHv+FtfE3/ohes/+FDpf/x+j/hbXxN/6IXrP/hQ6X/8fouFj2GivHv+FtfE7/ohes/+FDpf/wAfo/4W18Tv+iF6z/4UOl//AB+gLHsNFePf8La+Jv8A0QvWf/Ch0v8A+P1iL+0Z42bxnJ4UHwW1k69Hp66m1p/buncW7SNGr7vN2/fRhjdnjp0oHY98orx7/hbXxN/6IXrP/hQ6X/8AH6P+FtfE7/ohes/+FDpf/wAfoCx7DRXj3/C2vib/ANEL1n/wodL/APj9H/C2vib/ANEL1n/wodL/APj9FxWPYaK8e/4W18Tf+iF6z/4UOl//AB+j/hbXxN/6IXrP/hQ6X/8AH6LhY9horx7/AIW18Tf+iF6z/wCFDpf/AMfo/wCFtfE3/ohes/8AhQ6X/wDH6LhY9horx7/hbXxN/wCiF6z/AOFDpf8A8fo/4W18Tf8Aohes/wDhQ6X/APH6LhY9horx7/hbXxN/6IXrP/hQ6X/8fo/4W18Tf+iF6z/4UOl//H6LhY9horx7/hbXxN/6IXrP/hQ6X/8AH6P+FtfE3/ohes/+FDpf/wAfouFj2GivHv8AhbXxN/6IXrP/AIUOl/8Ax+kPxb+Jv/RC9a/DxDpX/wAfouFj2KivBbH9ojxxqXibV/D9t8FdZl1bSYbe4vLf+3dNHlJP5nlHcZgp3eU/QnG3nGRnYHxa+Jv/AEQzWT/3MOl//H6B2PYqK8e/4W18Tf8Aohes/wDhQ6X/APH6P+FtfE3/AKIXrP8A4UOl/wDx+i4rHsNFePf8La+Jv/RC9Z/8KHS//j9H/C2vib/0QvWf/Ch0v/4/RcLHsNFePf8AC2vib/0QvWf/AAodL/8Aj9H/AAtr4m/9EL1n/wAKHS//AI/RcLHsNFePf8La+Jv/AEQvWf8AwodL/wDj9H/C2vib/wBEL1n/AMKHS/8A4/RcLHsNFePf8La+Jv8A0QvWf/Ch0v8A+P0f8La+Jv8A0QvWf/Ch0v8A+P0XCx7DRXj3/C2vib/0QvWf/Ch0v/4/R/wtr4m/9EL1n/wodL/+P0XCx7DRXj3/AAtr4m/9EL1n/wAKHS//AI/R/wALa+Jv/RC9Z/8ACh0v/wCP0BY9horx0/Fv4mjGfgXrIH/Yw6X/APH6xdI/aK8ca54g13RbP4LazNqOhyQxahD/AG7py+S0sSyxjJlAbKMD8pOM4ODRcdj3yivHR8Wvib/0QvWf/Ch0v/4/S/8AC2vib/0QvWf/AAodL/8Aj9ArHsNFePf8La+Jv/RC9Z/8KHS//j9H/C2vib/0QvWf/Ch0v/4/RcLHsNFePf8AC2vib/0QvWf/AAodL/8Aj9H/AAtr4m/9EL1n/wAKHS//AI/RcLHsNFePf8La+Jv/AEQvWf8AwodL/wDj9H/C2vib/wBEL1n/AMKHS/8A4/RcLGl+0F/yLHhj/sb9A/8ATnb16fXz74w1z4lfEhvDelTfCLUtBtYfEWlahcahca5p0qQwwXsU0jFEmLNhUPABJ7Zr6CoGFFFFMkKKKKAMTxh4x0bwFoNxrWvXyadplvjfO6s3JOAqqoLMxPAABJrmvgfqvgzUPh7YWfgPUf7Q0HTM2SMyssiMvJVw6qwYbu4HWuN/aw3WvhzwXqlw2zQ9L8WaVe6q7f6uO3S6QtJJ22L94k8ADNYf7KdxDrnjz4xeIdIZZ/C+o60gsbmBg0E8iGUyyRkcEEPH8w4NSXbQ+jfwpaBRVEBRRRQAUUUUAFFFFABRRRQAUUUUAFFFFAGF4z8a6N8P9Bm1nXbv7Fp0LKrzCF5SCzBVG1AWOSR0Fee6l+0/8KZvD0V1ceKUNhqE8unoFsrkytKqqXTyxHvBCyL1H8VdP8ZviVoHwj+H+peKfEQie0sVDxQvgtLMWCxome5YrzjjqcAGvkfwvongbxNZW/xA1/4waN4S8Y32sXeuI2k6lZPHbStFAqQFZA6FlWNWIxuJk56YqTSKPp23+K/w6+E/w28J+brZsvDzWcdnpTTW0zzSxRRhBmNY9/CrySo6E16HoGvaf4p0a01bSrlL3TrtBJBcR52up7jIr410L4kXM3jT4M/EH4kXdvZ6VPpOpWh1W8QW1s8qPdJHMQ2FUzQiJscA+YABjAr2v9jXS9R0v4C6MNQWSNJ5JJ7SKTrHbsRsXHboTg+tCBpWue30UUVRmFFFFABRRRQAUUUUAFFFFABRRRQAVzPxA+I/hz4X6Gmr+J9RGmafJOlqkvkySlpXztUKisxJwe3aumryf9o7RfDWu+EtIi8TeMo/A0Fpq1vf22qvPBFtni3FADMCh+9nBHakNbmd8QvjN8KfEXgGxm1/xC8OhX97FNbsLO4SWSS1nS4H7vyy4VWiXJKgYzyM5rqPFXx68BeC7HSbzVvEUEFtqsbTWTwwyz+aikbnxGrEKCwBJwATivkrwX8Y4X+MH9v/ABL1GHW/B1jpmt6JpHie8gSO31EiYMpBRRGzvAkijYAH8zAzmqPwhuovhdH4SvPH8qaPZ33gTULSxk1VhGhmN/I5iXccbmSSAgDkge3Cua8qPvrS9TtNa0201CxnS6srqJJ4JozlZI2UMrD2IINWq8n/AGVdM1LSP2ffBNvqokW4/s6J0jl+9HEygxrjthSBjtivWKZk9AooopiCiiigAooooAKKKKACiiigApD9KWigZwvxA+Nng34WzxQ+JtVfTnljaRdtjcTjauNxJjjYDGe9ef8AiD44fBz4nah4d0248RyXl3Z6lZ6xZRWtjdEidWzAzHySApJ6HHB7Ve/a2168tPhdH4d0vzv7X8V6hb6LbfZ/v4djJN+HkxSg/WvGviiumfs969qOoeAfiHHD40/4lenSeCNttO18kNvHHGhi2GcF1C/MrD7/AFyRiS4pH0nqnx18C6H42i8I33iCGHxBJJHCLQwykB3GURpApRWbIwCwJ6da70fSvg3xbeQ2Mvxc8H3U6QePNY8dWF3pNrI4F1PC1/HJFLFnkokWDuHChcV906VFNBplpHcNunWFFkb1YKAT+dMUkWqKKKZAUUUUAFFFFABRRRQAUUUUAFFFFAGR4s8VaV4H8P3mua1dfYtLs1Vp7jy2fYCwUHaoLHkjoK5KX4/+AY/Adh4zbxFCPDl/I0VpdiCUtM4kMZVYtvmEhwQRt/Tmuo8bapo+i+FtRvdfurKy0mGLdNPqLqkCcgKWLcD5iuPfFfEfw48feELfR/gtqd9qun3WjaHruvnU5FuEkj097i8kNpLPg/u1LMjKzYGDn3qS0kfTnjL4ofDHU/DHhLxrq3iKP+xbPVVu9LuoI5H33X2eaPaY1QucRyyEjaCMDNbOrfH7wBofhXSPEd54jhTR9WLCxnigllafadrAIiF/lPByvB4OK+PPAd9YeG/F3hbx1qippPwzufGOtz2NzeYitIUmhBtnwxAClElVT05x3p/wqvYPBOsfC3xV4puY9O8Ezz+JDp9xfkLb2vmSqIyWbAUSMCVzjPUUtS+VH3h4a8R6Z4u0Ky1jR7yO/wBNvIlmguIvuupGQeeRweh5rTrw/wDY1sprP4F6c720lpaXV5dXdjDKCu21kkLQ4B6DaRivcKoze4UUUUyQooooAKKKKACiiigAooooAKwfG3jfRPh34fn1zxBejT9LgKrJP5TyYLEBRtQFjknsK3q5X4oa1omgeBtWvfEF7Y2GnJC2Z9QkSOIORhOW4zuIx70DRhax+0L4A0Hw5oevXmvhNJ1uFrjT7iOzuJfPjUDLbUjLKBuH3gOtc9rXxY+E/hfxRo3j+98Rbb3xFpAsNPmgt5p1uLaORpjhI42ZSGds7sHjpwa8K8P/ALR3hHwP+yv4C0jTdY0G+8X6hp39kQJPdxBbEsp81p2LARqo25DFcnbn0rTbwP8ADzwj4N+Gt9b/ABq0/wAOaz4fs7yaw1i1vLJ4bua48xbhkWRXVk8wyKFUHA464NSaJI+ivFHx48C+C9J0nUta11bG11RPNtC1rO0kiYyWMaoWUAdSwAHeuz0XWLLxBpNpqWn3Ed3Y3USzQzRnKurDIIr4s0/4lXE2ueHPG/xREGjxaz8PtQtYHvYxBEbppIGMa7vuyOqOQvUjOOtfQ37KWn3emfAHwnDewSW0jRzzJFMCGWGS4leLg9vLZMe2KEKUbHrVFFFUZhRRRQAUUUUAFFFFABRRRQAUUUUAcx8QPiR4c+FuhrrHijURpmmtKIBN5MkvzlWYDbGrHorHOMcVzniL9oz4eeE4dCl1PxCsK65ZpqGneVZzzNcQMu5ZAqISARzzg+tL+0Prmg6D8Jdfn8QX2n2EEltJFbSahKiK05jfaqFyPnIDYA5xmvmePVfAV98N/ht4vtPjFYeEfF/h3wTb2trHbXdnKWmS1KtE8UquWbcWUoo3cHoaktI+hNc+I3wz+GOvP4w1bXDp134stIIlaSCV/Nhtd+1wixlkA+0HJYAcitnxb+0D8P8AwLHpja54lgtBqVqt7alIZZvMgYErL8ittQgH5mwOOtfKV18QLqTXrXxj8To4dH/4SLwDe2diLweVG10r7XjjVujyKYW29T24HGH4ZvrX4a2bn4hSRwR6p8K7a30tL/gyAyTsLRM/8tArD5B83IGKVy+Vdz9CLW4ivLeOeGRZYZFDJIhyGB6EVLXAfAHS9Q0X4K+C7DVo5ItSt9LhjuI5vvq4XkGu/qjJhRRRTEFFFFABRRRQAUUUUAFFFFABXG+L/i/4Q8B+JNG0DXdXWw1bWJI4rG3NvK/nO7+Wg3KhVcv8vzEV2VfPP7XHi7wt4etfBkOr6xpOnamPEuj3KpeXEcU32ZL+JpJPmORGoViT0ABPagaO28YftLfDjwDrU+la/wCIW06+gkETq+n3TKHIyF3rEVPHoaztL+JHwy8M/GDxRpNtrEv/AAmes3tpHqNqtncOizCCOKFd4j2L8m3q3c+9cp8XNX034yfFf4ZeCdMvrXWND3S+JNTWEiWKWGLakALDgq5aYY77PauU8da9YfDP4wXmr+CfiLFqHibxF4n0+11bwOr2szSLlLeT5NnnRlUBbO4AdTxUmlke8SfHjwHD44HhBvENuviDzfINqYpdokAJ2GTbsDYVvl3Z4rvl96/PbWpI5tA8TeCCnmfEi6+Jct9b2Kgfa3iMZP2gD7xj2pKNw4G4/wB4Z/QlelCJkrC0UUVRAUUUUAFFFFABRRRQMKKKKBBRRRQBHNbxXEbRyxrKjDBV1BBH0pLazgsoRFbwxwRDpHEgVR+AqWigYUUUUAFFFFAgooooAKKKKACiiigAooooAKKKKAIrqzgvoTFcQxzxHBKSqGU46cGqn/CPaUY/LOmWZjznb5CY/LFaFFAXsVptMs7m3WCa0hlgX7sbxgqPoCMCp441jQIihEUYCqMAU6ikMKKKKYgooooAKKKKACiiigAooooAKKKKACobqyt76Py7mCO4TrtlQMPyNTUUDKb6PYSW6W72Nu8CHKxNEpQH1Axin3WmWd6qLcWsM6p91ZIwwX6ZHFWaKAuIqhRhQAPYUtFFAgooooAKKKKACiiigAooooAKKKKACiiigBkkEczIZI1codyFgCVOCMj0OCfzqCTSbKa6Fy9nA9zkHzmiUvx05xn0/KrVFAyu2m2kl0ty1rC1wv3ZmjBcfQ4zViiigAooooEFFFFABRRRQAUUUUAFFFFABRRRQBHcW8V1C0U8STRN1SRQyn6g1UTQdMjheFNOtVhc5aNYVCk+4xzV+igZWk020mt1t3tYXgXpE0YKj046UTaXZ3FusEtpBJAv3Y3jUqPoMVZopANjjSGNY41CIowqqMAD0FOoopiCiiigAooooAKKKKACiiigAooooAKiubWC8hMVxDHPEeqSqGU/galooAzv+Eb0kKqjS7IKvIX7OmB+nsKkfQ9OkijiawtWijGEQwqVUHsBjjrV2igZWuNMs7yNI57SCeNPurJGGC/QEVYRFjUKoCqBgAdBS0UCuFFFFABRRRQAUUUUAFFFFABRRRQAUUUUAQ3djb6hH5d1bxXEec7JUDDPrg1V/wCEd0raq/2ZZ7V6DyEwP0rQooGVrjTbS8REntYZ0j+4skYYL9AelF1pdne7PtFpDPs4XzIw236ZFWaKQXCiiimIKKKKACiiigAooooAKKKKACiiigAqreaTZagytdWdvclRgGaJXx+Yq1RQBBFY28LK0dvEjKu0MqAEL6D25PHvTP7JsvtX2n7Hb/ac587yl359c4zVqigZW/s20N0Lo2sJuR0mMY3/AJ4zVmiikAUUUUxBRRRQAUUUUAFFFFAH/9k=;" vertex="1" parent="l7o0WR-2r7jYEDledR1q-21">
          <mxGeometry x="51.982691352770225" y="596.8148148148149" width="674.1541704305932" height="509.3935561577838" as="geometry" />
        </mxCell>
        <mxCell id="l7o0WR-2r7jYEDledR1q-2" value="&lt;h1&gt;&lt;font style=&quot;font-size: 32px;&quot;&gt;Ablauf mit ArUco Marker&lt;/font&gt;&lt;/h1&gt;" style="text;html=1;align=center;verticalAlign=middle;whiteSpace=wrap;rounded=0;fontFamily=Verdana;fontColor=#000033;" vertex="1" parent="l7o0WR-2r7jYEDledR1q-21">
          <mxGeometry y="42.62962962962964" width="799.9999999999998" height="56.83950617283951" as="geometry" />
        </mxCell>
        <mxCell id="l7o0WR-2r7jYEDledR1q-5" value="&lt;font style=&quot;font-size: 16px;&quot;&gt;&amp;nbsp;Erkennung der Ankerpunkte&lt;/font&gt;" style="rounded=1;whiteSpace=wrap;html=1;fontFamily=Verdana;sketch=1;curveFitting=1;jiggle=2;strokeColor=none;fillColor=light-dark(#418fb6, #ededed);fontStyle=1;align=left;fontColor=#FFFFFF;" vertex="1" parent="l7o0WR-2r7jYEDledR1q-21">
          <mxGeometry x="113.48513868198908" y="156.30864197530863" width="629.0132652337376" height="56.83950617283951" as="geometry" />
        </mxCell>
        <mxCell id="l7o0WR-2r7jYEDledR1q-8" value="&lt;span style=&quot;font-size: 16px;&quot;&gt;&amp;nbsp;Erkennung der physischen Komponente&lt;/span&gt;" style="rounded=1;whiteSpace=wrap;html=1;fontFamily=Verdana;sketch=1;curveFitting=1;jiggle=2;strokeColor=none;fillColor=light-dark(#3d9dc5, #ededed);fontStyle=1;align=left;fontColor=#FFFFFF;" vertex="1" parent="l7o0WR-2r7jYEDledR1q-21">
          <mxGeometry x="113.48513868198908" y="227.35802469135805" width="629.0132652337376" height="56.83950617283951" as="geometry" />
        </mxCell>
        <mxCell id="l7o0WR-2r7jYEDledR1q-9" value="&lt;span style=&quot;font-size: 16px;&quot;&gt;&amp;nbsp;Berechnung der relativen Position&lt;/span&gt;" style="rounded=1;whiteSpace=wrap;html=1;fontFamily=Verdana;sketch=1;curveFitting=1;jiggle=2;strokeColor=none;fillColor=light-dark(#3fadd2, #ededed);fontStyle=1;align=left;fontColor=#FFFFFF;" vertex="1" parent="l7o0WR-2r7jYEDledR1q-21">
          <mxGeometry x="113.49932609775126" y="298.40740740740745" width="629.0132652337376" height="56.83950617283951" as="geometry" />
        </mxCell>
        <mxCell id="l7o0WR-2r7jYEDledR1q-10" value="&lt;span style=&quot;font-size: 16px;&quot;&gt;&amp;nbsp;Berechnung des Rotationswinkels&lt;/span&gt;" style="rounded=1;whiteSpace=wrap;html=1;fontFamily=Verdana;sketch=1;curveFitting=1;jiggle=2;strokeColor=none;fillColor=light-dark(#40bbdc, #ededed);fontStyle=1;align=left;fontColor=#FFFFFF;" vertex="1" parent="l7o0WR-2r7jYEDledR1q-21">
          <mxGeometry x="113.49932609775126" y="369.45679012345687" width="629.0132652337376" height="56.83950617283951" as="geometry" />
        </mxCell>
        <mxCell id="l7o0WR-2r7jYEDledR1q-11" value="&lt;span style=&quot;font-size: 16px;&quot;&gt;&amp;nbsp;Senden der Daten:&lt;br&gt;&lt;br&gt;&amp;nbsp;ID, X- u. Y-Relative und Rotationswinkel&lt;/span&gt;" style="rounded=1;whiteSpace=wrap;html=1;fontFamily=Verdana;sketch=1;curveFitting=1;jiggle=2;strokeColor=none;fillColor=light-dark(#4ec1e0, #ededed);fontStyle=1;align=left;fontColor=#FFFFFF;" vertex="1" parent="l7o0WR-2r7jYEDledR1q-21">
          <mxGeometry x="113.48513868198908" y="440.5061728395063" width="629.0132652337376" height="113.67901234567903" as="geometry" />
        </mxCell>
        <mxCell id="l7o0WR-2r7jYEDledR1q-12" value="" style="html=1;shadow=0;dashed=0;align=center;verticalAlign=middle;shape=mxgraph.arrows2.arrow;dy=0.6;dx=40;direction=south;notch=0;strokeColor=light-dark(#717694, #EDEDED);sketch=1;curveFitting=1;jiggle=2;fillColor=light-dark(#a6dcf8, #ededed);opacity=80;" vertex="1" parent="l7o0WR-2r7jYEDledR1q-21">
          <mxGeometry x="14.187415762218908" y="156.30864197530863" width="99.31191033553236" height="397.8765432098766" as="geometry" />
        </mxCell>
      </root>
    </mxGraphModel>
  </diagram>
</mxfile>
